<svg width="100" height="100" viewBox="0 0 100 100" fill="none" xmlns="http://www.w3.org/2000/svg">
<path d="M21.48 98.77C20.0981 98.4586 18.7748 97.9286 17.56 97.2C16.3485 96.3998 15.3568 95.3087 14.6755 94.0265C13.9943 92.7443 13.6451 91.3119 13.66 89.86C13.66 79.28 13.66 68.69 13.66 58.1C15.165 57.3912 16.5223 56.4038 17.66 55.19C28.1267 44.69 38.6133 34.1967 49.12 23.71C49.39 23.44 49.68 23.2 49.96 22.94L50.23 22.89C50.23 23.21 50.14 23.52 50.14 23.84C50.14 28.44 50.14 33.04 50.14 37.64C44.64 37.94 40.83 40.64 38.78 45.73C37.92 47.89 38.1 50.16 38.1 52.41C38.0554 52.8404 38.1067 53.2753 38.2501 53.6835C38.3936 54.0917 38.6256 54.4631 38.9297 54.7709C39.2337 55.0788 39.6021 55.3155 40.0085 55.464C40.4149 55.6125 40.8491 55.6692 41.28 55.63H50.14V62.06V62.12C49.2511 62.0645 48.3592 62.1557 47.5 62.39C44.8269 63.0167 42.4439 64.5281 40.7377 66.6791C39.0314 68.8301 38.1019 71.4945 38.1 74.24C38.1 82.4134 38.1 90.59 38.1 98.77H21.48Z" fill="#FDEAB3"/>
<path d="M50.11 62.07V55.64V55.57C53.26 55.57 56.41 55.57 59.55 55.57C60.2122 55.5538 60.8443 55.2903 61.3218 54.8313C61.7994 54.3722 62.0877 53.751 62.13 53.09C62.2483 51.1555 62.1914 49.2142 61.96 47.29C61.05 41.88 55.51 37.36 50.11 37.67V37.6C50.11 33 50.11 28.4 50.11 23.8C50.11 23.48 50.17 23.17 50.2 22.86C50.48 23.11 50.78 23.34 51.05 23.61C61.6167 34.1767 72.1666 44.7333 82.7 55.28C83.8059 56.4679 85.13 57.4321 86.6 58.12C86.6 68.58 86.6 79.04 86.6 89.5C86.6304 91.5794 85.9547 93.6076 84.6832 95.2532C83.4118 96.8989 81.6197 98.0646 79.6 98.56C79.41 98.56 79.21 98.56 79.09 98.77H62.09C62.09 90.4566 62.09 82.15 62.09 73.85C62.0846 72.9936 61.9772 72.1409 61.77 71.31C61.1346 68.6904 59.6421 66.3583 57.5295 64.6842C55.4169 63.01 52.8054 62.0899 50.11 62.07Z" fill="#FDEAB3"/>
<path d="M50.11 62.07C52.8174 62.0743 55.4451 62.9873 57.572 64.6627C59.6988 66.3381 61.2017 68.6788 61.84 71.31C62.0472 72.141 62.1546 72.9936 62.16 73.85C62.16 82.15 62.16 90.4567 62.16 98.77H50.16C50.16 86.55 50.16 74.3367 50.16 62.13L50.11 62.07Z" fill="#F7B801"/>
<path d="M50.13 62.13C50.13 74.3433 50.13 86.5567 50.13 98.77H38.13C38.13 90.59 38.13 82.4133 38.13 74.24C38.132 71.5016 39.0568 68.8437 40.7551 66.6955C42.4534 64.5473 44.826 63.034 47.49 62.4C48.3492 62.1657 49.2411 62.0744 50.13 62.13Z" fill="#F9C634"/>
<path d="M86.6 58.12C85.1299 57.4321 83.8059 56.4679 82.7 55.28C72.1733 44.72 61.63 34.17 51.07 23.63C50.8 23.36 50.5 23.13 50.22 22.88C50.2345 22.8276 50.2345 22.7723 50.22 22.72C50.22 15.48 50.22 8.24333 50.22 1.01C52.3475 0.958418 54.4146 1.72018 56 3.14C56.2654 3.36695 56.519 3.60726 56.76 3.86C69.8 16.9133 82.8433 29.96 95.89 43C96.875 43.9283 97.6478 45.0586 98.1552 46.3134C98.6627 47.5682 98.8929 48.9179 98.83 50.27C98.666 52.457 97.7177 54.5111 96.1596 56.0545C94.6015 57.5979 92.5384 58.5267 90.35 58.67C89.0786 58.6887 87.8124 58.503 86.6 58.12Z" fill="#5B274E"/>
<path d="M50.12 0.999987C50.12 8.23999 50.12 15.4767 50.12 22.71L49.9 22.92C49.62 23.18 49.33 23.42 49.06 23.69C38.5733 34.1967 28.09 44.6967 17.61 55.19C16.4723 56.4037 15.1151 57.3911 13.61 58.1C9.93001 59.25 6.61001 58.65 3.88001 55.86C2.3274 54.2306 1.44646 52.0756 1.41309 49.8252C1.37973 47.5748 2.19639 45.3947 3.70001 43.72C3.94001 43.46 4.18001 43.21 4.43001 42.96C17.43 29.96 30.43 16.96 43.43 3.95999C44.2757 3.02573 45.3083 2.27949 46.4607 1.76959C47.6131 1.25969 48.8598 0.997498 50.12 0.999987Z" fill="#7C5271"/>
<path d="M50.13 55.64H41.27C40.8391 55.6792 40.4049 55.6225 39.9985 55.474C39.5921 55.3254 39.2237 55.0887 38.9197 54.7809C38.6156 54.473 38.3836 54.1017 38.2401 53.6935C38.0967 53.2853 38.0454 52.8504 38.09 52.42C38.09 50.17 37.91 47.9 38.77 45.74C40.77 40.62 44.63 37.95 50.13 37.65V37.72V55.57V55.64Z" fill="#38DFC2"/>
<path d="M49.91 22.94L50.13 22.73C50.1445 22.7824 50.1445 22.8377 50.13 22.89L49.91 22.94Z" fill="#D9E1F1"/>
<path d="M50.11 55.57V37.69C55.51 37.38 61.05 41.9 61.96 47.31C62.1914 49.2343 62.2483 51.1755 62.13 53.11C62.0877 53.771 61.7994 54.3922 61.3218 54.8513C60.8443 55.3103 60.2122 55.5739 59.55 55.59C56.41 55.62 53.26 55.58 50.11 55.57Z" fill="#06D7B3"/>
</svg>
