<svg width="29" height="29" viewBox="0 0 29 29" fill="none" xmlns="http://www.w3.org/2000/svg">
<path d="M26.5814 17.4145C27.1636 17.4658 27.7356 17.5986 28.2808 17.8089C28.4515 17.8719 28.6005 17.9826 28.71 18.1279V18.4585C28.6128 18.5683 28.4794 18.6395 28.3341 18.6592C28.1888 18.6789 28.0413 18.6457 27.9183 18.5658C27.4176 18.3562 26.8806 18.2468 26.3378 18.2439H24.8878C24.5978 18.2439 24.3948 18.0873 24.389 17.8408C24.3832 17.5943 24.592 17.4522 24.8704 17.4058C25.4399 17.3591 26.0124 17.362 26.5814 17.4145Z" fill="#4D4D4D"/>
<path d="M26.5814 17.4145C26.014 17.3653 25.4435 17.3653 24.8761 17.4145C24.5861 17.4609 24.389 17.6146 24.3948 17.8495C24.4006 18.0844 24.5919 18.2497 24.8935 18.2526H26.3435C26.232 18.6522 26.0835 19.0406 25.8998 19.4126L24.7108 19.14C24.4005 19.0733 24.1657 19.198 24.1135 19.459C24.0613 19.72 24.2062 19.8795 24.5049 19.9549L25.488 20.1869C24.2416 22.3117 22.3558 23.9884 20.0998 24.9777C18.6218 25.6211 17.0467 26.0132 15.4396 26.1377C15.3565 26.1421 15.2732 26.1421 15.1902 26.1377C15.1757 26.0333 15.0974 26.0449 15.0249 26.0362C13.9526 25.9081 12.8999 25.6501 11.89 25.2677C10.508 24.7561 9.23054 23.9975 8.11995 23.0289C6.80033 21.9011 5.77849 20.466 5.14455 18.85C4.86566 18.1799 4.68684 17.4725 4.61385 16.7504C4.83135 16.4198 4.81685 16.3357 4.49785 15.9848C4.46918 14.9664 4.57942 13.9488 4.82555 12.9601C5.28088 11.2832 6.15161 9.74824 7.35725 8.497C8.02859 7.79223 8.78901 7.17804 9.61925 6.67C11.2397 5.64571 13.0708 5.00129 14.9755 4.785C15.0538 4.785 15.1264 4.785 15.138 4.6748C16.2423 4.7138 17.3373 4.89112 18.3975 5.2026C18.5077 5.2345 18.618 5.3041 18.7369 5.2287C18.7369 5.2751 18.7572 5.3186 18.8094 5.3331C19.4445 5.5187 20.0274 5.829 20.6421 6.0668C21.1351 6.3568 21.6484 6.6468 22.1182 6.9745C22.8672 7.4824 23.5493 8.08259 24.1482 8.7609C24.473 9.1437 24.7892 9.5352 25.1082 9.9209C25.4517 10.4984 25.7644 11.0937 26.0448 11.7044C26.0448 11.7334 26.1232 11.7421 26.1638 11.7595C26.1332 11.8438 26.1332 11.9362 26.1638 12.0205C26.5639 13.0664 26.776 14.1748 26.7901 15.2946C26.6828 15.3149 26.5755 15.3352 26.4682 15.3613C25.8264 15.5176 25.201 15.7351 24.6007 16.0109C24.5438 16.0291 24.4915 16.0596 24.4476 16.1C24.4036 16.1405 24.369 16.19 24.3461 16.2452C24.3231 16.3004 24.3125 16.3599 24.3149 16.4196C24.3173 16.4793 24.3327 16.5377 24.3599 16.5909C24.473 16.8113 24.7253 16.8519 25.0385 16.7243C25.5776 16.468 26.1495 16.2875 26.7379 16.1878C26.7078 16.5992 26.6555 17.0087 26.5814 17.4145V17.4145ZM14.4361 23.461C14.9146 23.4465 15.3062 23.4407 15.7035 23.3914C16.8981 23.2743 18.0559 22.913 19.1051 22.33C19.7721 21.9356 20.3318 21.431 20.4826 20.619C20.5577 20.1714 20.538 19.7129 20.4246 19.2734C20.2203 18.3422 19.8187 17.4656 19.2469 16.7027C18.6751 15.9398 17.9464 15.3083 17.1099 14.8509C16.5289 14.4848 15.8752 14.2495 15.1942 14.1613C14.5131 14.0732 13.821 14.1343 13.166 14.3405C11.0084 15.0307 9.59025 16.5039 8.81595 18.6064C8.68703 18.9821 8.60141 19.3713 8.56075 19.7664C8.40995 20.9757 8.98995 21.7732 9.98175 22.33C11.3466 23.0786 12.8795 23.4678 14.4361 23.461V23.461ZM8.76375 14.9234C8.76375 15.0887 8.76375 15.254 8.76375 15.4164C8.76058 15.5146 8.79389 15.6105 8.85726 15.6855C8.92064 15.7606 9.00957 15.8095 9.1069 15.8229C9.20423 15.8362 9.30305 15.813 9.38428 15.7578C9.46551 15.7025 9.52339 15.6191 9.54675 15.5237C9.63374 15.1292 9.63374 14.7205 9.54675 14.326C9.5291 14.2325 9.47543 14.1498 9.39731 14.0955C9.31919 14.0413 9.22288 14.0199 9.12915 14.036C9.07819 14.0385 9.02826 14.0513 8.98235 14.0736C8.93644 14.0958 8.89548 14.1271 8.86192 14.1656C8.82835 14.204 8.80288 14.2488 8.78701 14.2973C8.77114 14.3458 8.7652 14.397 8.76955 14.4478C8.76665 14.6102 8.76375 14.7668 8.76375 14.9234ZM20.2883 14.9234C20.2883 14.7494 20.2883 14.5725 20.2883 14.3985C20.2893 14.305 20.2543 14.2147 20.1907 14.1462C20.127 14.0776 20.0395 14.0361 19.9461 14.0302C19.8593 14.0095 19.7679 14.0229 19.6907 14.0677C19.6136 14.1125 19.5565 14.1853 19.5314 14.2709C19.4199 14.6889 19.4199 15.1289 19.5314 15.5469C19.5633 15.632 19.6234 15.7036 19.7016 15.7497C19.7798 15.7959 19.8715 15.8139 19.9614 15.8006C20.0512 15.7874 20.1339 15.7438 20.1955 15.677C20.2571 15.6103 20.294 15.5244 20.2999 15.4338C20.2999 15.2685 20.2999 15.1032 20.2999 14.9379L20.2883 14.9234Z" fill="#FACE4E"/>
<path d="M15.1381 4.67189C15.1381 4.77049 15.054 4.77339 14.9757 4.78209C13.0707 4.99926 11.2395 5.64467 9.61936 6.66999C8.78894 7.17893 8.02852 7.79409 7.35736 8.49989C6.15298 9.74867 5.28233 11.2805 4.82566 12.9543C4.57953 13.943 4.46929 14.9606 4.49796 15.979C4.38322 15.9509 4.26998 15.917 4.15866 15.8775C3.55264 15.6207 2.92201 15.4263 2.27656 15.2975C2.2836 14.1745 2.49487 13.0621 2.90006 12.0147C2.91621 11.9634 2.92146 11.9093 2.91546 11.8559C2.90947 11.8024 2.89237 11.7508 2.86526 11.7044C2.54771 11.0341 2.30459 10.331 2.14026 9.60769C2.23596 9.59319 2.27366 9.51779 2.31716 9.44529C2.59943 8.99655 2.90633 8.56379 3.23646 8.14899C3.31186 8.05619 3.36986 7.94889 3.50906 7.93729C3.62211 8.60789 3.782 9.26974 3.98756 9.91799C5.1172 8.29114 6.63807 6.97472 8.41006 6.08999C7.79628 5.77934 7.16157 5.51189 6.51056 5.28959C6.89336 5.0223 7.29787 4.78755 7.71986 4.58779C7.97369 4.50849 8.20723 4.3749 8.40426 4.19629C9.0311 4.43498 9.62775 4.74645 10.182 5.12429C10.2552 5.17352 10.3388 5.20539 10.4262 5.21745C10.5137 5.22951 10.6027 5.22145 10.6866 5.19389C12.1281 4.75909 13.6351 4.58237 15.1381 4.67189V4.67189Z" fill="#F7B801"/>
<path d="M4.61385 16.7417C4.686 17.4668 4.86483 18.1772 5.14455 18.85C5.77848 20.466 6.80032 21.9011 8.11995 23.0289C9.23054 23.9975 10.508 24.7561 11.8899 25.2677C12.9014 25.6535 13.956 25.9145 15.0306 26.0449C15.1031 26.0449 15.1814 26.0449 15.1959 26.1464C12.2007 26.3214 9.23505 25.4726 6.78595 23.7394C5.46374 22.8171 4.36401 21.6114 3.56695 20.2101C3.9186 20.1008 4.27703 20.0146 4.63995 19.952C4.73929 19.9228 4.82414 19.8576 4.8778 19.769C4.93147 19.6805 4.95007 19.5751 4.92995 19.4735C4.90814 19.3672 4.84633 19.2733 4.75728 19.2112C4.66823 19.1492 4.55875 19.1237 4.45145 19.14C4.0019 19.2202 3.55743 19.3268 3.12035 19.459C3.04679 19.1618 2.94982 18.8709 2.83035 18.589C2.79845 18.4759 2.76365 18.3628 2.73175 18.2497H4.18175C4.47175 18.2497 4.66895 18.0786 4.66895 17.835C4.66728 17.7731 4.65284 17.7122 4.62652 17.6561C4.60021 17.6 4.56259 17.55 4.51603 17.5092C4.46946 17.4683 4.41496 17.4375 4.35594 17.4188C4.29692 17.4 4.23465 17.3936 4.17305 17.4C3.59305 17.4 3.03625 17.4 2.46495 17.4L2.31995 16.1849C2.90736 16.2836 3.47829 16.4632 4.01645 16.7185C4.10859 16.7648 4.20959 16.7908 4.31263 16.7948C4.41568 16.7988 4.51839 16.7807 4.61385 16.7417Z" fill="#F7B801"/>
<path d="M3.50615 7.93731C3.36695 7.93731 3.30895 8.05621 3.23355 8.14901C2.90541 8.56395 2.60044 8.99671 2.32005 9.44531C2.27655 9.51781 2.23885 9.59321 2.14315 9.60771C1.67759 7.87956 1.49832 6.08682 1.61245 4.3007C1.61245 4.1992 1.61245 4.0977 1.61245 3.9962C1.64435 3.161 2.15765 2.7115 2.98415 2.7985C4.04686 2.90028 5.09869 3.09434 6.12775 3.3785C6.90154 3.58274 7.65562 3.85545 8.38105 4.1934C8.18402 4.37201 7.95049 4.5056 7.69665 4.58491C7.27466 4.78466 6.87015 5.01942 6.48735 5.2867H6.38005C5.65201 5.06204 4.90862 4.89049 4.15575 4.7734C3.62505 4.6922 3.34375 4.92131 3.34955 5.46071C3.35072 6.23684 3.40498 7.01198 3.51195 7.7807L3.50615 7.93731Z" fill="#F7B801"/>
<path d="M20.6625 4.1934C21.9972 3.58855 23.4095 3.17181 24.8588 2.9551C25.23 2.9 25.607 2.8594 25.9811 2.8072C26.8714 2.6854 27.3789 3.1291 27.4311 4.0252C27.5307 5.5625 27.4333 7.10624 27.1411 8.6188C27.0773 8.9552 26.9787 9.28 26.8975 9.6106C26.7931 9.5903 26.7583 9.5004 26.709 9.425C26.5436 9.15061 26.3636 8.88535 26.1696 8.6304C25.9724 8.3897 25.8535 8.0678 25.5316 7.9373V7.7691C25.6392 6.99461 25.6935 6.21364 25.694 5.4317C25.694 4.959 25.404 4.6864 24.998 4.7531C24.2125 4.87316 23.437 5.05152 22.678 5.2867H22.5649C22.1821 5.01941 21.7776 4.78466 21.3556 4.5849C21.0999 4.50387 20.8639 4.37054 20.6625 4.1934V4.1934Z" fill="#F7B801"/>
<path d="M25.549 7.93729C25.8709 8.06779 25.9898 8.38969 26.187 8.63039C26.381 8.88534 26.561 9.15059 26.7264 9.42499C26.7757 9.50039 26.8105 9.59029 26.9149 9.61059C26.7509 10.3554 26.4957 11.0771 26.1551 11.7595C26.1145 11.7421 26.0478 11.7334 26.0362 11.7044C25.7557 11.0937 25.4431 10.4984 25.0995 9.92089C25.2735 9.27999 25.4214 8.60429 25.549 7.93729Z" fill="#F7B801"/>
<path d="M20.6625 4.19339C20.8622 4.36984 21.0962 4.50313 21.3498 4.58489C21.7718 4.78465 22.1763 5.0194 22.5591 5.28669C21.9153 5.53029 21.2657 5.77099 20.6422 6.06389C20.0274 5.82609 19.4445 5.51579 18.8094 5.33019C18.7572 5.31569 18.7427 5.27219 18.7369 5.22579C19.3337 4.80352 19.9805 4.45675 20.6625 4.19339V4.19339Z" fill="#F7B801"/>
<path d="M25.4881 20.1985L24.505 19.9665C24.215 19.8911 24.0642 19.7113 24.1135 19.4706C24.1628 19.2299 24.4035 19.0849 24.7109 19.1516L25.8883 19.4097C26.3742 19.5715 26.8489 19.7653 27.3093 19.9897C27.4858 20.0871 27.6571 20.1936 27.8226 20.3087C28.1967 20.5784 28.2808 20.7843 28.1126 21.0221C27.9444 21.2599 27.7037 21.2483 27.347 20.9931C26.785 20.6096 26.1536 20.3397 25.4881 20.1985V20.1985Z" fill="#7A7A7A"/>
<path d="M3.12037 19.4532C3.55758 19.3229 4.00204 19.2183 4.45147 19.14C4.55877 19.1236 4.66825 19.1491 4.7573 19.2112C4.84635 19.2733 4.90816 19.3672 4.92997 19.4735C4.95009 19.5751 4.93149 19.6805 4.87782 19.769C4.82416 19.8576 4.73931 19.9228 4.63997 19.952C4.28097 20.015 3.92643 20.1012 3.57857 20.2101C2.95895 20.3319 2.36834 20.5711 1.83857 20.9148C1.73707 20.9786 1.64717 21.0569 1.54857 21.1207C1.50439 21.1519 1.4545 21.1741 1.40173 21.1861C1.34897 21.198 1.29437 21.1995 1.24105 21.1903C1.18773 21.1812 1.13673 21.1616 1.09098 21.1327C1.04522 21.1039 1.0056 21.0663 0.974367 21.0221C0.943139 20.9779 0.920917 20.928 0.908972 20.8753C0.897026 20.8225 0.89559 20.7679 0.904746 20.7146C0.913902 20.6612 0.93347 20.6103 0.962334 20.5645C0.991197 20.5187 1.02879 20.4791 1.07297 20.4479C1.57034 20.0674 2.12815 19.7733 2.72307 19.5779C2.83907 19.5315 2.98117 19.4967 3.12037 19.4532Z" fill="#7A7A7A"/>
<path d="M4.61394 16.7417C4.51688 16.7825 4.41207 16.8015 4.30687 16.7975C4.20167 16.7935 4.09862 16.7665 4.00494 16.7185C3.47044 16.4642 2.90349 16.2847 2.32004 16.1849C2.0184 16.0746 1.69859 16.0225 1.37754 16.0312C1.25864 16.0312 1.13684 16.0312 1.01794 16.0312C0.727941 16.0312 0.548141 15.8833 0.533641 15.6513C0.519141 15.4193 0.701841 15.2337 0.997641 15.2076C1.42963 15.1804 1.86334 15.2086 2.28814 15.2917C2.93359 15.4206 3.56422 15.6149 4.17024 15.8717C4.28156 15.9112 4.3948 15.9451 4.50954 15.9732C4.81694 16.327 4.83144 16.4111 4.61394 16.7417Z" fill="#4D4D4D"/>
<path d="M26.7235 16.1936C26.135 16.2933 25.5632 16.4738 25.0241 16.7301C24.7109 16.8577 24.4441 16.8171 24.3455 16.5967C24.3183 16.5435 24.3029 16.4851 24.3005 16.4254C24.2981 16.3657 24.3087 16.3062 24.3316 16.251C24.3545 16.1958 24.3892 16.1463 24.4331 16.1058C24.4771 16.0654 24.5293 16.035 24.5862 16.0167C25.1866 15.7419 25.812 15.5253 26.4538 15.37C26.5611 15.3439 26.6684 15.3236 26.7757 15.3033C27.1828 15.2266 27.5973 15.1974 28.0111 15.2163C28.3504 15.2395 28.5476 15.4048 28.5331 15.66C28.5186 15.9152 28.3272 16.0486 27.9966 16.0428C27.5664 16.0055 27.1331 16.0568 26.7235 16.1936Z" fill="#4D4D4D"/>
<path d="M2.46504 17.4C3.04504 17.4 3.60474 17.4 4.17314 17.4C4.23267 17.3944 4.2927 17.4008 4.34974 17.4187C4.40677 17.4367 4.45965 17.4658 4.50529 17.5044C4.55093 17.543 4.58841 17.5904 4.61553 17.6436C4.64265 17.6969 4.65887 17.7551 4.66324 17.8147C4.66324 18.0583 4.47184 18.2265 4.17604 18.2294H2.72604C2.22015 18.2378 1.71925 18.3309 1.24414 18.5049C1.14264 18.5426 1.04114 18.5861 0.936741 18.618C0.886814 18.6415 0.832545 18.6543 0.777389 18.6557C0.722234 18.657 0.667401 18.6468 0.616385 18.6258C0.565368 18.6048 0.519286 18.5734 0.481074 18.5336C0.442862 18.4938 0.413358 18.4465 0.394441 18.3947C0.373725 18.3432 0.3637 18.2881 0.364976 18.2326C0.366252 18.1771 0.378802 18.1225 0.401862 18.0721C0.424923 18.0216 0.458011 17.9764 0.499112 17.9391C0.540213 17.9018 0.588469 17.8733 0.640941 17.8553C1.09326 17.6519 1.57302 17.5161 2.06484 17.4522L2.46504 17.4Z" fill="#7A7A7A"/>
<path d="M14.4362 23.461C12.8795 23.4678 11.3467 23.0786 9.98179 22.33C8.98709 21.75 8.39549 20.967 8.54919 19.7548C8.58984 19.3597 8.67546 18.9705 8.80439 18.5948C9.59029 16.4923 11.0084 15.0191 13.1544 14.3289C13.812 14.1227 14.5066 14.0625 15.1899 14.1527C15.8731 14.2428 16.5284 14.4811 17.11 14.8509C17.9455 15.3074 18.6736 15.9375 19.2453 16.6988C19.8171 17.4601 20.2192 18.335 20.4247 19.2647C20.538 19.7042 20.5578 20.1626 20.4827 20.6103C20.3319 21.4223 19.7722 21.9269 19.1052 22.3213C18.0566 22.9073 16.8987 23.2716 15.7035 23.3914C15.3091 23.4407 14.9147 23.4465 14.4362 23.461ZM15.37 16.82C15.5944 16.8296 15.8183 16.7915 16.0267 16.708C16.2352 16.6245 16.4236 16.4976 16.5793 16.3357C16.6206 16.3007 16.6545 16.2577 16.679 16.2094C16.7035 16.161 16.7181 16.1083 16.7219 16.0542C16.7257 16.0002 16.7186 15.9459 16.7011 15.8947C16.6836 15.8434 16.656 15.7961 16.6199 15.7557C16.5451 15.6768 16.4421 15.6307 16.3335 15.6275C16.2248 15.6242 16.1193 15.664 16.0399 15.7383C15.5759 16.0979 15.2946 16.0979 14.8364 15.7383C14.7593 15.6618 14.655 15.6189 14.5464 15.6189C14.4378 15.6189 14.3335 15.6618 14.2564 15.7383C13.7895 16.1095 13.514 16.1095 13.0529 15.7383C13.0119 15.7029 12.9644 15.6759 12.9131 15.6588C12.8617 15.6418 12.8074 15.635 12.7535 15.6389C12.6995 15.6428 12.6468 15.6573 12.5984 15.6816C12.55 15.7058 12.5069 15.7394 12.4714 15.7803C12.436 15.8213 12.409 15.8688 12.392 15.9202C12.3749 15.9715 12.3681 16.0258 12.372 16.0798C12.3759 16.1338 12.3904 16.1865 12.4147 16.2348C12.439 16.2832 12.4725 16.3264 12.5135 16.3618C12.6601 16.5081 12.8343 16.6239 13.0259 16.7025C13.2175 16.7812 13.4229 16.8211 13.63 16.82C13.9432 16.82 14.2245 16.6257 14.5 16.6112C14.7755 16.5967 15.08 16.8403 15.37 16.82Z" fill="#E9E9E9"/>
<path d="M20.6422 6.06391C21.2657 5.77391 21.9153 5.53031 22.5591 5.28671H22.6722C22.7157 5.38531 22.8143 5.42591 22.8955 5.48391C23.5663 5.93599 24.1934 6.44958 24.7689 7.01801C25.0183 7.27321 25.2822 7.51681 25.5403 7.76911V7.93731C25.4127 8.60431 25.2648 9.26551 25.0908 9.92091C24.7718 9.53231 24.4557 9.14081 24.1309 8.76091C23.5319 8.0826 22.8499 7.48241 22.1009 6.97451C21.6485 6.63521 21.1352 6.38001 20.6422 6.06391Z" fill="#EFEAEE"/>
<path d="M8.76382 14.9234C8.76382 14.7668 8.76382 14.6102 8.76382 14.4536C8.75947 14.4028 8.76541 14.3516 8.78128 14.3031C8.79715 14.2546 8.82262 14.2098 8.85618 14.1713C8.88975 14.1329 8.93071 14.1016 8.97662 14.0794C9.02253 14.0571 9.07246 14.0443 9.12342 14.0418C9.21715 14.0257 9.31346 14.0471 9.39158 14.1013C9.4697 14.1556 9.52337 14.2383 9.54102 14.3318C9.62801 14.7263 9.62801 15.135 9.54102 15.5295C9.51766 15.6249 9.45978 15.7083 9.37855 15.7636C9.29732 15.8188 9.1985 15.842 9.10117 15.8287C9.00384 15.8153 8.91491 15.7664 8.85153 15.6913C8.78816 15.6163 8.75485 15.5204 8.75802 15.4222C8.76962 15.254 8.76382 15.08 8.76382 14.9234Z" fill="#7A7A7A"/>
<path d="M20.3 14.9379C20.3 15.1032 20.3 15.2685 20.3 15.4338C20.2986 15.5269 20.2646 15.6165 20.2038 15.6871C20.1431 15.7576 20.0595 15.8045 19.9676 15.8197C19.8758 15.8349 19.7815 15.8174 19.7013 15.7702C19.6211 15.723 19.56 15.6491 19.5286 15.5614C19.417 15.1434 19.417 14.7034 19.5286 14.2854C19.5537 14.1998 19.6107 14.127 19.6879 14.0822C19.7651 14.0374 19.8565 14.024 19.9433 14.0447C20.0392 14.047 20.1304 14.0869 20.1971 14.1558C20.2639 14.2247 20.3008 14.3171 20.3 14.413C20.3 14.587 20.3 14.7639 20.3 14.9379Z" fill="#7A7A7A"/>
<path d="M3.5061 7.93731V7.76621C3.6076 7.67341 3.7149 7.58641 3.8106 7.47621C4.34711 6.90073 4.92898 6.36929 5.5506 5.88701C5.84436 5.71196 6.12193 5.51106 6.38 5.28671H6.4931C7.15012 5.5092 7.79067 5.77763 8.41 6.09001C6.63695 6.97434 5.11505 8.2908 3.9846 9.91801C3.77905 9.26976 3.61915 8.60791 3.5061 7.93731V7.93731Z" fill="#EFEAEE"/>
<path d="M6.38001 5.28671C6.12886 5.5141 5.8581 5.71887 5.57091 5.89861C4.94929 6.38089 4.36742 6.91233 3.83091 7.48781C3.73521 7.58641 3.62791 7.67341 3.52641 7.77781C3.41944 7.00909 3.36518 6.23395 3.36401 5.45781C3.36401 4.91841 3.63951 4.68931 4.17021 4.77051C4.91827 4.88923 5.65678 5.06175 6.38001 5.28671V5.28671Z" fill="#EFEAEE"/>
<path d="M25.5402 7.7691C25.2821 7.5168 25.0182 7.2732 24.7688 7.018C24.198 6.45028 23.5757 5.93671 22.9099 5.4839C22.8287 5.4259 22.7301 5.3853 22.6866 5.2867C23.4457 5.05152 24.2211 4.87316 25.0066 4.7531C25.4242 4.6864 25.7055 4.959 25.7026 5.4317C25.7022 6.21364 25.6479 6.99462 25.5402 7.7691Z" fill="#EFEAEE"/>
<path d="M15.3701 16.82C15.0801 16.8461 14.7901 16.5967 14.5175 16.6141C14.2449 16.6315 13.9549 16.82 13.6301 16.82C13.4177 16.8231 13.207 16.7831 13.0106 16.7023C12.8142 16.6215 12.6362 16.5018 12.4875 16.3502C12.4044 16.2756 12.3544 16.171 12.3484 16.0596C12.3424 15.9481 12.381 15.8388 12.4556 15.7557C12.5302 15.6726 12.6347 15.6226 12.7462 15.6166C12.8577 15.6106 12.967 15.6492 13.0501 15.7238C13.5112 16.0834 13.7867 16.0834 14.2536 15.7238C14.3307 15.6473 14.4349 15.6044 14.5436 15.6044C14.6522 15.6044 14.7564 15.6473 14.8336 15.7238C15.2918 16.0892 15.5731 16.0892 16.0371 15.7238C16.1165 15.6496 16.222 15.6097 16.3306 15.613C16.4393 15.6163 16.5423 15.6623 16.6171 15.7412C16.6531 15.7816 16.6807 15.8289 16.6982 15.8802C16.7158 15.9314 16.7228 15.9857 16.719 16.0398C16.7153 16.0938 16.7007 16.1466 16.6762 16.1949C16.6517 16.2432 16.6178 16.2862 16.5765 16.3212C16.4224 16.4853 16.2351 16.6147 16.0271 16.7007C15.819 16.7867 15.595 16.8274 15.3701 16.82Z" fill="#4D4D4D"/>
</svg>
