<svg width="90" height="90" viewBox="0 0 90 90" fill="none" xmlns="http://www.w3.org/2000/svg">
<path d="M0.900391 71.207C1.03539 71.639 1.16139 72.107 1.29639 72.503C1.78997 74.0729 2.75925 75.4505 4.07011 76.4454C5.38097 77.4402 6.96862 78.0031 8.61339 78.056C17.2174 78.11 25.8304 78.056 34.4344 78.056C36.3874 80.36 38.2954 82.709 40.2934 84.968C41.5624 86.399 42.4714 88.199 44.2264 89.099C30.0424 89.099 15.8554 89.099 1.66539 89.099C1.09839 89.099 0.900391 89.045 0.900391 88.37C0.900391 82.655 0.900391 76.931 0.900391 71.207Z" fill="#E9E9E9"/>
<path d="M0.900391 61.7585C1.27912 60.6583 1.91111 59.6625 2.74539 58.8515C4.04327 57.9022 5.64491 57.4633 7.24539 57.6185H12.2134C11.9344 57.7355 11.6464 57.8705 11.3584 57.9695C10.2374 58.3835 9.29721 59.1779 8.70182 60.214C8.10644 61.2502 7.89359 62.4624 8.10039 63.6395C8.26892 64.592 8.69276 65.481 9.32675 66.2117C9.96073 66.9424 10.7811 67.4873 11.7004 67.7885C11.4664 68.0315 11.1694 67.9415 10.8904 67.9415H6.05739C4.96507 67.9423 3.90121 67.5931 3.02175 66.9453C2.14229 66.2974 1.49347 65.3849 1.17039 64.3415C1.09839 64.1615 1.11639 63.9365 0.918391 63.8195L0.900391 61.7585Z" fill="#5B274E"/>
<path d="M83.7448 67.9492C82.2628 71.5912 80.7808 75.2422 79.2988 78.9022C78.9388 79.8022 78.5878 80.7022 78.2008 81.6022C77.5906 83.1558 76.5571 84.5072 75.2176 85.5031C73.8781 86.4989 72.2863 87.0994 70.6228 87.2362C69.5998 87.3336 68.5721 87.3727 67.5448 87.3532H25.9198C25.7128 87.3532 25.5148 87.3532 25.3168 87.3532C25.2628 86.9302 24.8758 87.0472 24.6418 86.9752C23.3719 86.6226 22.197 85.9901 21.2034 85.1242C20.2098 84.2583 19.4227 83.181 18.8998 81.9712C17.3968 78.5602 16.0198 75.0952 14.6608 71.6302C14.0705 70.4646 13.6145 69.2358 13.3018 67.9672H13.9858L83.7448 67.9492Z" fill="#5B274E"/>
<path d="M83.7454 67.949H13.9684H13.2844L11.7004 67.787C10.7811 67.4859 9.96073 66.9409 9.32675 66.2103C8.69277 65.4796 8.26892 64.5906 8.10039 63.638C7.90097 62.464 8.11842 61.2572 8.71506 60.2267C9.3117 59.1961 10.25 58.4067 11.3674 57.995C11.6554 57.896 11.9434 57.761 12.2224 57.644H50.9224H55.9174H80.1004C81.6025 57.5948 83.1063 57.652 84.6004 57.815C85.4359 57.9465 86.2243 58.288 86.8917 58.8075C87.5592 59.327 88.0838 60.0074 88.4164 60.785C88.8003 61.5635 88.9662 62.4315 88.8965 63.2967C88.8267 64.1619 88.524 64.9921 88.0204 65.699C87.544 66.3929 86.9058 66.9604 86.161 67.3524C85.4162 67.7445 84.5871 67.9492 83.7454 67.949Z" fill="#9D7D95"/>
<path d="M50.9216 57.5998H12.2216H7.27156C7.02856 56.4208 6.65956 55.2778 6.50656 54.0718C6.44842 53.6847 6.43032 53.2926 6.45256 52.9018C7.60456 53.1088 8.73856 53.3878 9.89056 53.5678C12.4079 54.0186 15.0036 53.5661 17.2199 52.29C19.4361 51.0139 21.1307 48.9962 22.0046 46.5928C23.322 43.0497 23.8711 39.2671 23.6156 35.4958C23.5429 33.1566 23.1832 30.8352 22.5446 28.5838C24.0566 28.3858 25.5416 28.0078 27.0446 27.8368C29.1638 27.6392 31.3003 27.7453 33.3896 28.1518C34.1456 28.2778 34.8926 28.4398 35.6486 28.5928C34.6596 32.2677 34.3245 36.0878 34.6586 39.8788C34.8042 43.0326 35.7321 46.1007 37.3586 48.8068C38.2236 50.2473 39.4369 51.4473 40.8869 52.2966C42.3368 53.1458 43.977 53.6169 45.6566 53.6668C47.745 53.7242 49.8293 53.4477 51.8306 52.8478C51.6704 54.4558 51.3662 56.0462 50.9216 57.5998ZM31.0496 51.7138C31.628 51.735 32.2048 51.6399 32.7458 51.4343C33.2869 51.2287 33.7812 50.9167 34.1996 50.5168C34.3479 50.4104 34.4727 50.2745 34.566 50.1176C34.6593 49.9608 34.7192 49.7862 34.7417 49.6051C34.7643 49.424 34.7492 49.2401 34.6973 49.0651C34.6454 48.8901 34.5578 48.7277 34.4401 48.5882C34.3224 48.4487 34.177 48.3351 34.0133 48.2544C33.8495 48.1738 33.6708 48.1279 33.4885 48.1197C33.3061 48.1115 33.124 48.1411 32.9537 48.2067C32.7833 48.2723 32.6284 48.3724 32.4986 48.5008C31.4636 49.2388 31.0946 49.2478 30.0416 48.5008C29.7954 48.3028 29.489 48.1949 29.1731 48.1949C28.8572 48.1949 28.5508 48.3028 28.3046 48.5008C27.0716 49.3198 26.9006 49.3108 25.7126 48.5008C25.4448 48.2797 25.1005 48.1737 24.7548 48.2057C24.4091 48.2377 24.0901 48.4053 23.8676 48.6718C23.6684 48.9398 23.5756 49.2722 23.6072 49.6046C23.6388 49.9371 23.7925 50.246 24.0386 50.4718C24.3921 50.8902 24.8401 51.2186 25.3456 51.4298C25.851 51.6411 26.3994 51.7291 26.9456 51.6868C28.4036 51.4888 29.8526 51.0928 31.0496 51.7138Z" fill="#E9E9E9"/>
<path d="M59.0036 57.5994H55.9166C55.9706 55.8984 56.1596 54.1974 56.3216 52.5054C56.4508 50.6359 56.3996 48.7582 56.1686 46.8984C56.0336 45.6204 55.5206 44.3964 55.9616 43.0374C56.9755 39.6017 57.4788 36.0356 57.4556 32.4534C63.0896 32.2284 68.3636 33.3534 73.0256 36.6834C73.2056 36.8184 73.3586 37.0164 73.6196 36.9984C73.7839 37.2267 73.9708 37.4378 74.1776 37.6284C75.4515 38.702 76.5773 39.9398 77.5256 41.3094C77.7596 41.5974 77.7686 42.1104 78.2816 42.1554C78.2587 42.2813 78.2629 42.4107 78.2939 42.5348C78.325 42.659 78.3821 42.7751 78.4616 42.8754C79.7226 45.0437 80.5242 47.448 80.8169 49.9392C81.1095 52.4303 80.8868 54.955 80.1626 57.3564C80.1327 57.4348 80.1115 57.5163 80.0996 57.5994H61.5866C61.5472 56.7138 61.6443 55.8275 61.8746 54.9714C62.2617 53.5284 62.9406 52.18 63.8694 51.0097C64.7982 49.8394 65.9571 48.8721 67.2746 48.1674C68.0576 47.6994 68.8946 47.3124 69.6866 46.8624C69.8367 46.7869 69.9697 46.6816 70.0776 46.5528C70.1855 46.424 70.2659 46.2746 70.3139 46.1136C70.3619 45.9526 70.3766 45.7835 70.3569 45.6167C70.3373 45.4499 70.2837 45.2888 70.1996 45.1434C70.073 44.8499 69.835 44.6187 69.538 44.5006C69.241 44.3825 68.9092 44.3871 68.6156 44.5134C66.3627 45.3624 64.3273 46.7029 62.6576 48.4374C61.4269 49.613 60.4636 51.0397 59.8331 52.6206C59.2026 54.2015 58.9197 55.8995 59.0036 57.5994Z" fill="#FACE4E"/>
<path d="M51.8764 52.8667C49.8752 53.4667 47.7909 53.7432 45.7024 53.6857C44.0228 53.6359 42.3827 53.1647 40.9327 52.3155C39.4828 51.4663 38.2695 50.2662 37.4044 48.8257C35.7779 46.1197 34.8501 43.0516 34.7044 39.8977C34.3703 36.1067 34.7055 32.2866 35.6944 28.6117C35.7415 28.5982 35.7914 28.5982 35.8384 28.6117C36.6644 29.1026 37.5509 29.4838 38.4754 29.7457C39.1758 30.2344 39.9856 30.5434 40.8334 30.6457C40.7524 31.0957 41.1574 31.1407 41.3914 31.2937C42.7682 32.2008 44.0551 33.2375 45.2344 34.3897C46.4058 35.6205 47.4971 36.9252 48.5014 38.2957C48.7128 38.8887 49.0166 39.4445 49.4014 39.9427C50.0944 41.2027 50.4994 42.5887 51.1474 43.8757C51.1924 44.1277 51.2194 44.3797 51.2824 44.6317C51.959 47.3211 52.16 50.108 51.8764 52.8667ZM40.9414 46.3507C40.9414 46.7557 40.9414 47.1607 40.9414 47.5567C40.9431 47.8877 41.0704 48.2056 41.2977 48.4462C41.5249 48.6869 41.8351 48.8321 42.1654 48.8527C42.4953 48.8706 42.8194 48.761 43.0707 48.5466C43.322 48.3321 43.4813 48.0293 43.5154 47.7007C43.5801 46.8019 43.5801 45.8995 43.5154 45.0007C43.5031 44.8361 43.4578 44.6756 43.3823 44.5288C43.3068 44.3821 43.2026 44.2519 43.0758 44.1462C42.9491 44.0404 42.8024 43.9612 42.6445 43.9132C42.4866 43.8652 42.3206 43.8494 42.1564 43.8667C41.9903 43.8609 41.8248 43.8905 41.6709 43.9537C41.5171 44.0168 41.3785 44.112 41.2644 44.233C41.1503 44.3539 41.0633 44.4978 41.0091 44.655C40.955 44.8122 40.935 44.9791 40.9504 45.1447C40.9234 45.5497 40.9414 45.9547 40.9414 46.3507Z" fill="#F7B801"/>
<path d="M22.5445 28.6025C23.1832 30.8539 23.5428 33.1753 23.6155 35.5145C23.8711 39.2858 23.322 43.0685 22.0045 46.6115C21.1309 49.0131 19.4378 51.0295 17.2234 52.3054C15.0091 53.5814 12.4155 54.035 9.89954 53.5865C8.74754 53.4065 7.61354 53.1275 6.46154 52.9205C6.18734 51.4629 6.15087 49.9706 6.35354 48.5015C6.51659 46.9854 6.78118 45.4821 7.14554 44.0015C7.70525 42.5055 8.3421 41.0395 9.05354 39.6095C9.30554 39.1415 9.72854 38.7095 9.71054 38.1425C10.0795 38.1425 10.1515 37.8185 10.3045 37.6025C11.6418 35.7225 13.2283 34.0331 15.0205 32.5805C15.879 32.0405 16.6972 31.4389 17.4685 30.7805C18.4552 30.4317 19.4098 29.9981 20.3215 29.4845C21.0704 29.3348 21.779 29.0281 22.4005 28.5845C22.4492 28.5821 22.4979 28.5882 22.5445 28.6025ZM14.6695 46.3055C14.638 46.7309 14.638 47.1581 14.6695 47.5835C14.6836 47.9016 14.8127 48.2039 15.0329 48.434C15.253 48.6641 15.5493 48.8064 15.8665 48.8345C16.0351 48.8583 16.2068 48.8475 16.3711 48.8027C16.5354 48.7579 16.6888 48.6801 16.8219 48.5739C16.955 48.4677 17.0651 48.3355 17.1453 48.1853C17.2256 48.0351 17.2743 47.8702 17.2885 47.7005C17.473 46.7796 17.473 45.8313 17.2885 44.9105C17.2714 44.7466 17.2206 44.5881 17.1393 44.4448C17.058 44.3015 16.9481 44.1765 16.8163 44.0777C16.6845 43.9788 16.5337 43.9083 16.3734 43.8704C16.2131 43.8325 16.0466 43.8281 15.8845 43.8575C15.0835 43.9115 14.7685 44.4605 14.6875 45.1715C14.6425 45.5585 14.6695 45.9005 14.6695 46.3055Z" fill="#F7B801"/>
<path d="M11.6996 67.7871L13.2476 67.9671C13.5604 69.2356 14.0163 70.4645 14.6066 71.6301C15.9656 75.0951 17.3066 78.5601 18.8456 81.9711C19.3737 83.1778 20.165 84.2511 21.1617 85.1123C22.1584 85.9735 23.3351 86.6007 24.6056 86.9481C24.8396 87.0201 25.2266 86.9481 25.2806 87.3261C23.1954 87.4056 21.1073 87.3726 19.0256 87.2271C17.4872 87.1267 16.0059 86.6051 14.744 85.7193C13.4821 84.8336 12.488 83.6178 11.8706 82.2051C9.80964 77.5161 7.99164 72.7101 6.05664 67.9491H10.9256C11.2046 67.9401 11.5016 68.0301 11.6996 67.7871Z" fill="#7C5271"/>
<path d="M75.3386 17.3887C76.0501 19.0977 76.9755 20.7096 78.0926 22.1857C80.333 25.3304 81.472 29.127 81.3326 32.9857C81.2739 34.5533 80.9482 36.0995 80.3696 37.5577C79.4696 36.6577 78.6236 35.6947 77.6696 34.8577C76.8566 33.9857 75.8894 33.2717 74.8166 32.7517C74.9696 29.9887 73.8626 27.6397 72.3686 25.4257C71.039 23.6723 70.0025 21.7149 69.2996 19.6297C69.2173 19.4179 69.1835 19.1903 69.2006 18.9637C71.356 19.0438 73.4882 18.4967 75.3386 17.3887Z" fill="#FACE4E"/>
<path d="M22.3923 28.6116C21.7708 29.0552 21.0622 29.362 20.3133 29.5116C19.4016 30.0252 18.447 30.4588 17.4604 30.8076C15.6255 29.9428 13.6909 29.308 11.7004 28.9176C9.99035 28.5036 9.41435 28.9716 9.33335 30.7176C9.24919 33.1948 9.36355 35.6747 9.67535 38.1336C9.67535 38.7276 9.27035 39.1326 9.01835 39.6006C8.30691 41.0307 7.67006 42.4966 7.11035 43.9926C5.50039 39.2055 4.8878 34.1395 5.31035 29.1066C5.36435 28.2786 5.47235 27.4596 5.55335 26.6316C5.54362 26.2206 5.63045 25.8131 5.80687 25.4417C5.98328 25.0704 6.24436 24.7456 6.56912 24.4935C6.89387 24.2414 7.27324 24.069 7.67674 23.9902C8.08023 23.9113 8.49659 23.9283 8.89235 24.0396C13.636 24.7173 18.2131 26.2674 22.3923 28.6116Z" fill="#FACE4E"/>
<path d="M75.3393 17.3882C73.4759 18.5047 71.3267 19.0522 69.1563 18.9632C68.704 17.5616 68.5537 16.0801 68.7153 14.6162C68.8598 12.7636 69.3642 10.9568 70.2003 9.29724C71.8113 6.18324 74.0343 3.69024 77.5173 2.62824C78.117 2.4971 78.7418 2.542 79.3166 2.75754C79.8914 2.97309 80.3917 3.35011 80.7573 3.84324C81.1238 4.36493 81.336 4.97935 81.3694 5.61607C81.4028 6.25278 81.2562 6.88604 80.9463 7.44324C80.5568 8.04302 80.0084 8.52285 79.3623 8.82924C78.0548 9.50949 76.9678 10.5477 76.2284 11.8226C75.4889 13.0976 75.1275 14.5566 75.1863 16.0292C75.2092 16.485 75.2603 16.9388 75.3393 17.3882Z" fill="#E9E9E9"/>
<path d="M40.8153 30.6722C39.9674 30.57 39.1577 30.2609 38.4573 29.7722C37.5319 29.5047 36.6454 29.1174 35.8203 28.6202C40.1664 26.2002 44.9349 24.6331 49.8693 24.0032C50.2057 23.9749 50.5443 24.0132 50.8658 24.116C51.1874 24.2188 51.4854 24.384 51.7429 24.6023C52.0005 24.8205 52.2124 25.0874 52.3665 25.3877C52.5207 25.688 52.6141 26.0157 52.6413 26.3522C52.9366 28.5049 53.057 30.678 53.0013 32.8502C53.0014 34.3567 52.887 35.861 52.6593 37.3502C52.4027 39.5989 51.8738 41.8081 51.0843 43.9292C50.4363 42.6422 50.0313 41.2292 49.3383 39.9962C48.9534 39.498 48.6497 38.9422 48.4383 38.3492C48.8141 35.7844 48.9526 33.1904 48.8523 30.6002C48.7983 28.9712 48.1863 28.5032 46.6203 28.8542C44.6431 29.3161 42.7028 29.9238 40.8153 30.6722Z" fill="#FACE4E"/>
<path d="M51.0838 43.9023C51.8733 41.7812 52.4022 39.572 52.6588 37.3233C52.8865 35.8341 53.0008 34.3298 53.0008 32.8233C54.4896 32.5877 55.9936 32.4613 57.5008 32.4453C57.524 36.0275 57.0207 39.5936 56.0068 43.0293C55.5658 44.3883 56.0788 45.6123 56.2138 46.8903C56.4448 48.7501 56.496 50.6277 56.3668 52.4973C56.2048 54.1893 56.0158 55.8903 55.9618 57.5913H50.9668C51.4277 56.0333 51.747 54.4368 51.9208 52.8213C52.1806 50.0679 51.9583 47.2903 51.2638 44.6133C51.1558 44.4063 51.1288 44.1543 51.0838 43.9023Z" fill="#F7B801"/>
<path d="M74.8347 32.7148C75.9074 33.2349 76.8747 33.9489 77.6877 34.8208C78.5877 35.7208 79.4877 36.6208 80.3877 37.5208C79.9353 39.1701 79.231 40.7395 78.2997 42.1738C77.7867 42.1738 77.7777 41.6158 77.5437 41.3278C76.5954 39.9582 75.4696 38.7204 74.1957 37.6468C73.9889 37.4562 73.802 37.2451 73.6377 37.0168C74.2321 35.6445 74.6348 34.1969 74.8347 32.7148Z" fill="#F7B801"/>
<path d="M59.004 57.5999C58.9162 55.8955 59.1972 54.1923 59.8278 52.6065C60.4584 51.0206 61.4238 49.5895 62.658 48.4109C64.3277 46.6764 66.3631 45.3359 68.616 44.4869C68.9096 44.3605 69.2414 44.3559 69.5384 44.4741C69.8354 44.5922 70.0734 44.8234 70.2 45.1169C70.2872 45.2661 70.342 45.432 70.3609 45.6038C70.3798 45.7756 70.3624 45.9495 70.3098 46.1141C70.2572 46.2788 70.1705 46.4305 70.0555 46.5595C69.9404 46.6885 69.7996 46.7919 69.642 46.8629C68.85 47.3129 68.013 47.6999 67.23 48.1679C65.9125 48.8725 64.7536 49.8399 63.8248 51.0102C62.896 52.1805 62.2171 53.5288 61.83 54.9719C61.6149 55.8303 61.5329 56.7166 61.587 57.5999H59.004Z" fill="#F7B801"/>
<path d="M31.0496 51.7134C29.8526 51.0924 28.4036 51.4884 26.9186 51.7134C26.3725 51.7558 25.824 51.6677 25.3186 51.4565C24.8132 51.2452 24.3652 50.9169 24.0116 50.4984C23.7655 50.2727 23.6119 49.9637 23.5803 49.6313C23.5487 49.2988 23.6414 48.9665 23.8406 48.6984C24.0632 48.432 24.3822 48.2644 24.7279 48.2324C25.0736 48.2003 25.4179 48.3064 25.6856 48.5274C26.8736 49.3374 27.0446 49.3464 28.2776 48.5274C28.5238 48.3295 28.8302 48.2216 29.1461 48.2216C29.462 48.2216 29.7684 48.3295 30.0146 48.5274C31.0676 49.2924 31.4366 49.2834 32.4716 48.5274C32.5988 48.3945 32.7524 48.2896 32.9224 48.2193C33.0925 48.1491 33.2753 48.1151 33.4593 48.1195C33.6432 48.1239 33.8242 48.1667 33.9907 48.245C34.1572 48.3234 34.3055 48.4356 34.4262 48.5745C34.5469 48.7134 34.6372 48.8759 34.6915 49.0517C34.7458 49.2275 34.7629 49.4127 34.7416 49.5955C34.7202 49.7782 34.661 49.9545 34.5677 50.1131C34.4744 50.2717 34.349 50.409 34.1996 50.5164C33.7813 50.9164 33.2869 51.2284 32.7459 51.434C32.2048 51.6396 31.628 51.7346 31.0496 51.7134Z" fill="#4D4D4D"/>
<path d="M40.8152 30.6714C42.7032 29.9291 44.6435 29.3275 46.6202 28.8714C48.1862 28.5204 48.7982 28.9884 48.8522 30.6174C48.9636 33.1853 48.8401 35.758 48.4832 38.3034C47.4789 36.9329 46.3876 35.6282 45.2162 34.3974C44.0446 33.2528 42.7669 32.2222 41.4002 31.3194C41.1392 31.1664 40.7342 31.1214 40.8152 30.6714Z" fill="#F7B801"/>
<path d="M40.9412 46.3491C40.9412 45.9531 40.9412 45.5481 40.9412 45.1521C40.9258 44.9865 40.9458 44.8196 40.9999 44.6624C41.0541 44.5052 41.1411 44.3613 41.2552 44.2404C41.3693 44.1194 41.5079 44.0242 41.6617 43.961C41.8155 43.8979 41.981 43.8682 42.1472 43.8741C42.3107 43.8567 42.4759 43.8722 42.6333 43.9197C42.7907 43.9671 42.937 44.0456 43.0636 44.1504C43.1902 44.2552 43.2946 44.3843 43.3706 44.53C43.4466 44.6758 43.4927 44.8353 43.5062 44.9991C43.5709 45.8979 43.5709 46.8002 43.5062 47.6991C43.4786 48.0325 43.3222 48.3421 43.0702 48.5622C42.8182 48.7823 42.4903 48.8956 42.1562 48.8781C41.8259 48.8575 41.5157 48.7123 41.2884 48.4716C41.0612 48.231 40.9339 47.913 40.9322 47.5821C40.9232 47.1591 40.9412 46.7991 40.9412 46.3491Z" fill="#4D4D4D"/>
<path d="M9.70178 38.1789C9.38998 35.72 9.27561 33.2401 9.35978 30.7629C9.44078 28.9629 10.0168 28.5039 11.7268 28.9629C13.7081 29.3554 15.6335 29.9902 17.4598 30.8529C16.6884 31.5114 15.8703 32.1129 15.0118 32.6529C13.2195 34.1055 11.633 35.795 10.2958 37.6749C10.1428 37.8549 10.0708 38.1879 9.70178 38.1789Z" fill="#F7B801"/>
<path d="M14.6699 46.3054C14.6699 45.9364 14.6699 45.5584 14.6699 45.1984C14.7509 44.4874 15.0659 43.9384 15.8669 43.8844C16.029 43.855 16.1954 43.8594 16.3557 43.8973C16.5161 43.9352 16.6668 44.0058 16.7986 44.1046C16.9304 44.2035 17.0404 44.3285 17.1217 44.4718C17.2029 44.6151 17.2537 44.7736 17.2709 44.9374C17.4554 45.8583 17.4554 46.8066 17.2709 47.7274C17.2531 47.8921 17.2027 48.0517 17.1227 48.1968C17.0426 48.3418 16.9346 48.4696 16.8048 48.5726C16.675 48.6755 16.5261 48.7517 16.3666 48.7967C16.2072 48.8416 16.0404 48.8545 15.8759 48.8344C15.5587 48.8064 15.2624 48.6641 15.0422 48.434C14.8221 48.2039 14.6929 47.9016 14.6789 47.5834C14.6474 47.158 14.6474 46.7309 14.6789 46.3054H14.6699Z" fill="#4D4D4D"/>
</svg>
