<svg width="100" height="100" viewBox="0 0 100 100" fill="none" xmlns="http://www.w3.org/2000/svg">
<path d="M91.66 60.05C93.6674 60.227 95.6399 60.6848 97.52 61.41C98.1087 61.6271 98.6224 62.0089 99 62.51V63.65C98.6648 64.0285 98.2048 64.2741 97.7037 64.342C97.2027 64.4099 96.6939 64.2957 96.27 64.02C94.5434 63.2971 92.6918 62.92 90.82 62.91H85.82C84.82 62.91 84.12 62.37 84.1 61.52C84.08 60.67 84.8 60.18 85.76 60.02C87.7238 59.859 89.6979 59.8691 91.66 60.05Z" fill="#4D4D4D"/>
<path d="M91.66 60.05C89.7037 59.8802 87.7363 59.8802 85.78 60.05C84.78 60.21 84.1 60.74 84.12 61.55C84.14 62.36 84.8 62.93 85.84 62.94H90.84C90.4555 64.318 89.9433 65.6571 89.31 66.94L85.21 66C84.14 65.77 83.33 66.2 83.15 67.1C82.97 68 83.47 68.55 84.5 68.81L87.89 69.61C83.592 76.9368 77.0892 82.7185 69.31 86.13C64.2134 88.3487 58.782 89.7007 53.24 90.13C52.9535 90.145 52.6665 90.145 52.38 90.13C52.33 89.77 52.06 89.81 51.81 89.78C48.1125 89.3383 44.4825 88.4485 41 87.13C36.2346 85.3658 31.8296 82.75 28 79.41C23.4496 75.5212 19.926 70.5723 17.74 65C16.7783 62.6894 16.1617 60.25 15.91 57.76C16.66 56.62 16.61 56.33 15.51 55.12C15.4111 51.6081 15.7913 48.0992 16.64 44.69C18.2101 38.9077 21.2126 33.6146 25.37 29.3C27.685 26.8697 30.3071 24.7519 33.17 23C38.7576 19.4679 45.0719 17.2458 51.64 16.5C51.91 16.5 52.16 16.5 52.2 16.12C56.008 16.2545 59.7841 16.8659 63.44 17.94C63.82 18.05 64.2 18.29 64.61 18.03C64.61 18.19 64.68 18.34 64.86 18.39C67.05 19.03 69.06 20.1 71.18 20.92C72.88 21.92 74.65 22.92 76.27 24.05C78.8526 25.8014 81.2045 27.871 83.27 30.21C84.39 31.53 85.48 32.88 86.58 34.21C87.7648 36.2014 88.843 38.2543 89.81 40.36C89.81 40.46 90.08 40.49 90.22 40.55C90.1146 40.8407 90.1146 41.1593 90.22 41.45C91.6 45.0566 92.3312 48.8788 92.38 52.74C92.01 52.81 91.64 52.88 91.27 52.97C89.0566 53.5088 86.9 54.2589 84.83 55.21C84.6338 55.2729 84.4537 55.3778 84.3021 55.5173C84.1505 55.6568 84.031 55.8276 83.9521 56.0179C83.8731 56.2082 83.8365 56.4134 83.8448 56.6192C83.853 56.8251 83.906 57.0267 84 57.21C84.39 57.97 85.26 58.11 86.34 57.67C88.1988 56.7863 90.1708 56.1638 92.2 55.82C92.0961 57.2387 91.9158 58.6507 91.66 60.05ZM49.78 80.9C51.43 80.85 52.78 80.83 54.15 80.66C58.2694 80.2562 62.2619 79.0104 65.88 77C68.18 75.64 70.11 73.9 70.63 71.1C70.8889 69.5564 70.8207 67.9756 70.43 66.46C69.7254 63.2488 68.3405 60.2261 66.3688 57.5954C64.3971 54.9648 61.8844 52.7874 59 51.21C56.9965 49.9475 54.7423 49.1361 52.3938 48.8322C50.0453 48.5283 47.6589 48.7391 45.4 49.45C37.96 51.83 33.07 56.91 30.4 64.16C29.9554 65.4555 29.6602 66.7975 29.52 68.16C29 72.33 31 75.08 34.42 77C39.1264 79.5815 44.4121 80.9236 49.78 80.9ZM30.22 51.46C30.22 52.03 30.22 52.6 30.22 53.16C30.2091 53.4986 30.3239 53.8292 30.5425 54.088C30.761 54.3469 31.0677 54.5156 31.4033 54.5616C31.7389 54.6076 32.0797 54.5276 32.3598 54.3371C32.6399 54.1466 32.8395 53.859 32.92 53.53C33.22 52.1697 33.22 50.7603 32.92 49.4C32.8591 49.0777 32.6741 48.7923 32.4047 48.6052C32.1353 48.4182 31.8032 48.3444 31.48 48.4C31.3043 48.4088 31.1321 48.4528 30.9738 48.5296C30.8155 48.6063 30.6742 48.7142 30.5585 48.8467C30.4428 48.9792 30.3549 49.1337 30.3002 49.3009C30.2455 49.4682 30.225 49.6447 30.24 49.82C30.23 50.38 30.22 50.92 30.22 51.46ZM69.96 51.46C69.96 50.86 69.96 50.25 69.96 49.65C69.9632 49.3275 69.8426 49.0161 69.6231 48.7798C69.4036 48.5435 69.1019 48.4005 68.78 48.38C68.4807 48.3086 68.1654 48.3549 67.8992 48.5094C67.6331 48.6639 67.4365 48.9147 67.35 49.21C66.9652 50.6514 66.9652 52.1686 67.35 53.61C67.4599 53.9033 67.6669 54.1502 67.9367 54.3094C68.2064 54.4686 68.5226 54.5305 68.8325 54.4849C69.1424 54.4393 69.4273 54.2889 69.6397 54.0587C69.8522 53.8286 69.9793 53.5325 70 53.22C70 52.65 70 52.08 70 51.51L69.96 51.46Z" fill="#FACE4E"/>
<path d="M52.2 16.11C52.2 16.45 51.91 16.46 51.64 16.49C45.0711 17.2389 38.7567 19.4644 33.17 23C30.3065 24.755 27.6843 26.8762 25.37 29.31C21.217 33.6161 18.2147 38.8984 16.64 44.67C15.7913 48.0792 15.4111 51.5881 15.51 55.1C15.1144 55.0031 14.7239 54.8863 14.34 54.75C12.2503 53.8644 10.0757 53.1943 7.85 52.75C7.87428 48.8775 8.60281 45.0417 10 41.43C10.0557 41.2531 10.0738 41.0666 10.0531 40.8823C10.0325 40.698 9.97349 40.5201 9.88 40.36C8.785 38.0486 7.94666 35.6241 7.38 33.13C7.71 33.08 7.84 32.82 7.99 32.57C8.96336 31.0226 10.0216 29.5303 11.16 28.1C11.42 27.78 11.62 27.41 12.1 27.37C12.4898 29.6824 13.0412 31.9647 13.75 34.2C17.6453 28.5902 22.8897 24.0508 29 21C26.8835 19.9288 24.6949 19.0066 22.45 18.24C23.77 17.3183 25.1649 16.5088 26.62 15.82C27.4953 15.5465 28.3006 15.0859 28.98 14.47C31.1415 15.2931 33.1989 16.3671 35.11 17.67C35.3626 17.8398 35.6507 17.9496 35.9522 17.9912C36.2538 18.0328 36.5608 18.005 36.85 17.91C41.8207 16.4107 47.0173 15.8013 52.2 16.11Z" fill="#F7B801"/>
<path d="M15.91 57.73C16.1588 60.2302 16.7754 62.68 17.74 65C19.926 70.5723 23.4496 75.5212 28 79.41C31.8296 82.75 36.2346 85.3659 41 87.13C44.4876 88.4603 48.1245 89.3602 51.83 89.81C52.08 89.81 52.35 89.81 52.4 90.16C42.0717 90.7633 31.8452 87.8364 23.4 81.86C18.8407 78.6797 15.0485 74.522 12.3 69.69C13.5126 69.313 14.7486 69.0157 16 68.8C16.3426 68.6994 16.6351 68.4744 16.8202 68.1691C17.0052 67.8637 17.0694 67.5002 17 67.15C16.9248 66.7834 16.7117 66.4596 16.4046 66.2456C16.0975 66.0316 15.72 65.9437 15.35 66C13.7998 66.2767 12.2672 66.644 10.76 67.1C10.5064 66.0752 10.172 65.072 9.76 64.1C9.65 63.71 9.53 63.32 9.42 62.93H14.42C15.42 62.93 16.1 62.34 16.1 61.5C16.0943 61.2865 16.0445 61.0765 15.9537 60.8831C15.863 60.6898 15.7333 60.5173 15.5727 60.3764C15.4121 60.2356 15.2242 60.1294 15.0207 60.0647C14.8171 59.9999 14.6024 59.9779 14.39 60C12.39 60 10.47 60 8.5 60L8 55.81C10.0256 56.1504 11.9943 56.7696 13.85 57.65C14.1677 57.8097 14.516 57.8994 14.8713 57.9132C15.2267 57.927 15.5808 57.8645 15.91 57.73Z" fill="#F7B801"/>
<path d="M12.09 27.37C11.61 27.37 11.41 27.78 11.15 28.1C10.0185 29.5308 8.96687 31.0231 8.00001 32.57C7.85001 32.82 7.72001 33.08 7.39001 33.13C5.78463 27.1709 5.16645 20.989 5.56001 14.83C5.56001 14.48 5.56001 14.13 5.56001 13.78C5.67001 10.9 7.44001 9.35 10.29 9.65C13.9545 10.0009 17.5815 10.6701 21.13 11.65C23.7983 12.3543 26.3985 13.2946 28.9 14.46C28.2206 15.0759 27.4153 15.5365 26.54 15.81C25.0849 16.4988 23.69 17.3083 22.37 18.23H22C19.4895 17.4553 16.9261 16.8637 14.33 16.46C12.5 16.18 11.53 16.97 11.55 18.83C11.554 21.5063 11.7411 24.1792 12.11 26.83L12.09 27.37Z" fill="#F7B801"/>
<path d="M71.25 14.46C75.8526 12.3743 80.7224 10.9373 85.72 10.19C87 10 88.3 9.86001 89.59 9.68001C92.66 9.26001 94.41 10.79 94.59 13.88C94.9337 19.181 94.5976 24.5043 93.59 29.72C93.37 30.88 93.03 32 92.75 33.14C92.39 33.07 92.27 32.76 92.1 32.5C91.5298 31.5538 90.9089 30.6391 90.24 29.76C89.56 28.93 89.15 27.82 88.04 27.37V26.79C88.4112 24.1194 88.5984 21.4263 88.6 18.73C88.6 17.1 87.6 16.16 86.2 16.39C83.4914 16.804 80.8173 17.419 78.2 18.23H77.81C76.49 17.3083 75.0951 16.4988 73.64 15.81C72.7584 15.5306 71.9445 15.0708 71.25 14.46Z" fill="#F7B801"/>
<path d="M88.1 27.37C89.21 27.82 89.62 28.93 90.3 29.76C90.9689 30.6391 91.5898 31.5538 92.16 32.5C92.33 32.76 92.45 33.07 92.81 33.14C92.2444 35.7083 91.3645 38.197 90.19 40.55C90.05 40.49 89.82 40.46 89.78 40.36C88.8129 38.2543 87.7348 36.2014 86.55 34.21C87.15 32 87.66 29.67 88.1 27.37Z" fill="#F7B801"/>
<path d="M71.25 14.46C71.9386 15.0685 72.7454 15.5281 73.62 15.81C75.0751 16.4988 76.47 17.3083 77.79 18.23C75.57 19.07 73.33 19.9 71.18 20.91C69.06 20.09 67.05 19.02 64.86 18.38C64.68 18.33 64.63 18.18 64.61 18.02C66.668 16.5639 68.8982 15.3682 71.25 14.46Z" fill="#F7B801"/>
<path d="M87.89 69.65L84.5 68.85C83.5 68.59 82.98 67.97 83.15 67.14C83.32 66.31 84.15 65.81 85.21 66.04L89.27 66.93C90.9456 67.488 92.5825 68.1561 94.17 68.93C94.7786 69.2658 95.3694 69.633 95.94 70.03C97.23 70.96 97.52 71.67 96.94 72.49C96.36 73.31 95.53 73.27 94.3 72.39C92.3623 71.0677 90.1848 70.1369 87.89 69.65Z" fill="#7A7A7A"/>
<path d="M10.76 67.08C12.2676 66.6308 13.8002 66.2701 15.35 66C15.72 65.9437 16.0975 66.0316 16.4046 66.2456C16.7116 66.4596 16.9248 66.7834 17 67.15C17.0694 67.5002 17.0052 67.8637 16.8202 68.1691C16.6351 68.4744 16.3426 68.6995 16 68.8C14.7621 69.0174 13.5395 69.3147 12.34 69.69C10.2034 70.1101 8.1668 70.935 6.33999 72.12C5.98999 72.34 5.67999 72.61 5.33999 72.83C5.18766 72.9377 5.0156 73.0143 4.83366 73.0555C4.65171 73.0967 4.46343 73.1017 4.27957 73.0701C4.09571 73.0385 3.91987 72.971 3.76209 72.8715C3.60431 72.772 3.46767 72.6423 3.35999 72.49C3.25231 72.3377 3.17568 72.1656 3.13449 71.9837C3.0933 71.8017 3.08835 71.6135 3.11992 71.4296C3.15149 71.2457 3.21897 71.0699 3.3185 70.9121C3.41802 70.7543 3.54766 70.6177 3.69999 70.51C5.41508 69.1981 7.33856 68.184 9.38999 67.51C9.78999 67.35 10.28 67.23 10.76 67.08Z" fill="#7A7A7A"/>
<path d="M15.91 57.73C15.5753 57.8705 15.2139 57.9362 14.8511 57.9224C14.4884 57.9086 14.133 57.8156 13.81 57.65C11.9669 56.7731 10.0119 56.1539 7.99999 55.81C6.95984 55.4297 5.85707 55.2499 4.74999 55.28C4.33999 55.28 3.91999 55.28 3.50999 55.28C2.50999 55.28 1.88999 54.77 1.83999 53.97C1.78999 53.17 2.41999 52.53 3.43999 52.44C4.92962 52.3461 6.42515 52.4435 7.88999 52.73C10.1157 53.1743 12.2903 53.8444 14.38 54.73C14.7638 54.8663 15.1543 54.9831 15.55 55.08C16.61 56.3 16.66 56.59 15.91 57.73Z" fill="#4D4D4D"/>
<path d="M92.15 55.84C90.1208 56.1838 88.1488 56.8063 86.29 57.69C85.21 58.13 84.29 57.99 83.95 57.23C83.856 57.0467 83.8031 56.8451 83.7948 56.6392C83.7865 56.4334 83.8231 56.2282 83.9021 56.0379C83.9811 55.8476 84.1005 55.6768 84.2521 55.5373C84.4037 55.3978 84.5838 55.2929 84.78 55.23C86.8504 54.2823 89.0069 53.5356 91.22 53C91.59 52.91 91.96 52.84 92.33 52.77C93.7336 52.5054 95.1632 52.4048 96.59 52.47C97.76 52.55 98.44 53.12 98.39 54C98.34 54.88 97.68 55.34 96.54 55.32C95.0565 55.1914 93.5624 55.3683 92.15 55.84Z" fill="#4D4D4D"/>
<path d="M8.50003 60C10.5 60 12.43 60 14.39 60C14.5953 59.9808 14.8023 60.0028 14.999 60.0646C15.1957 60.1264 15.378 60.2269 15.5354 60.36C15.6928 60.4932 15.822 60.6564 15.9155 60.8401C16.009 61.0239 16.065 61.2244 16.08 61.43C16.08 62.27 15.42 62.85 14.4 62.86H9.40003C7.65559 62.8891 5.92836 63.2102 4.29003 63.81C3.94003 63.94 3.59003 64.09 3.23003 64.2C3.05787 64.281 2.87073 64.3252 2.68054 64.3299C2.49035 64.3345 2.30127 64.2995 2.12535 64.2271C1.94944 64.1546 1.79053 64.0464 1.65877 63.9091C1.527 63.7719 1.42526 63.6087 1.36003 63.43C1.2886 63.2525 1.25403 63.0624 1.25843 62.8711C1.26283 62.6798 1.30611 62.4915 1.38562 62.3175C1.46514 62.1435 1.57924 61.9875 1.72097 61.859C1.8627 61.7305 2.02909 61.6321 2.21003 61.57C3.76974 60.8686 5.42409 60.4002 7.12003 60.18L8.50003 60Z" fill="#7A7A7A"/>
<path d="M49.78 80.9C44.4121 80.9236 39.1264 79.5815 34.42 77C30.99 75 28.95 72.3 29.48 68.12C29.6202 66.7575 29.9154 65.4155 30.36 64.12C33.07 56.87 37.96 51.79 45.36 49.41C47.6275 48.6989 50.023 48.4915 52.3789 48.8024C54.7349 49.1133 56.9946 49.935 59 51.21C61.8811 52.7842 64.3918 54.9569 66.3633 57.5822C68.3348 60.2074 69.7215 63.2243 70.43 66.43C70.8207 67.9456 70.8889 69.5264 70.63 71.07C70.11 73.87 68.18 75.61 65.88 76.97C62.2642 78.9909 58.2716 80.2469 54.15 80.66C52.79 80.83 51.43 80.85 49.78 80.9ZM53 58C53.7737 58.0333 54.5457 57.9016 55.2647 57.6137C55.9836 57.3258 56.6331 56.8882 57.17 56.33C57.3126 56.2092 57.4295 56.0611 57.514 55.8945C57.5984 55.7278 57.6486 55.5459 57.6617 55.3595C57.6747 55.1731 57.6503 54.986 57.5899 54.8092C57.5295 54.6324 57.4343 54.4695 57.31 54.33C57.052 54.0581 56.697 53.8991 56.3224 53.8879C55.9477 53.8767 55.5838 54.014 55.31 54.27C53.71 55.51 52.74 55.51 51.16 54.27C50.894 54.0062 50.5346 53.8582 50.16 53.8582C49.7854 53.8582 49.426 54.0062 49.16 54.27C47.55 55.55 46.6 55.55 45.01 54.27C44.8688 54.1479 44.705 54.0547 44.5278 53.9959C44.3507 53.9371 44.1636 53.9138 43.9775 53.9273C43.7913 53.9407 43.6096 53.9907 43.4427 54.0744C43.2759 54.1581 43.1271 54.2738 43.005 54.415C42.8829 54.5562 42.7897 54.72 42.7309 54.8972C42.6721 55.0743 42.6488 55.2614 42.6622 55.4475C42.6757 55.6337 42.7257 55.8154 42.8094 55.9823C42.8931 56.1491 43.0088 56.2979 43.15 56.42C43.6556 56.9245 44.2562 57.3238 44.917 57.595C45.5778 57.8662 46.2857 58.0038 47 58C48.08 58 49.05 57.33 50 57.28C50.95 57.23 52 58.07 53 58Z" fill="#E9E9E9"/>
<path d="M71.18 20.91C73.33 19.91 75.57 19.07 77.79 18.23H78.18C78.33 18.57 78.67 18.71 78.95 18.91C81.2629 20.4689 83.4256 22.2399 85.41 24.2C86.27 25.08 87.18 25.92 88.07 26.79V27.37C87.63 29.67 87.12 31.95 86.52 34.21C85.42 32.87 84.33 31.52 83.21 30.21C81.1445 27.871 78.7926 25.8014 76.21 24.05C74.65 22.88 72.88 22 71.18 20.91Z" fill="#EFEAEE"/>
<path d="M30.22 51.46C30.22 50.92 30.22 50.38 30.22 49.84C30.205 49.6647 30.2255 49.4882 30.2802 49.3209C30.3349 49.1537 30.4228 48.9992 30.5385 48.8667C30.6542 48.7342 30.7955 48.6263 30.9538 48.5496C31.1121 48.4728 31.2843 48.4288 31.46 48.42C31.7832 48.3644 32.1153 48.4382 32.3847 48.6252C32.6541 48.8123 32.8391 49.0977 32.9 49.42C33.2 50.7803 33.2 52.1897 32.9 53.55C32.8195 53.879 32.6199 54.1666 32.3398 54.3571C32.0597 54.5476 31.7189 54.6276 31.3833 54.5816C31.0477 54.5356 30.741 54.3669 30.5225 54.108C30.3039 53.8492 30.189 53.5186 30.2 53.18C30.24 52.6 30.22 52 30.22 51.46Z" fill="#7A7A7A"/>
<path d="M70 51.51C70 52.08 70 52.65 70 53.22C69.9951 53.541 69.8777 53.85 69.6682 54.0932C69.4587 54.3365 69.1704 54.4984 68.8537 54.5508C68.537 54.6032 68.212 54.5427 67.9353 54.3799C67.6587 54.2171 67.448 53.9623 67.34 53.66C66.9552 52.2186 66.9552 50.7014 67.34 49.26C67.4265 48.9647 67.6231 48.7139 67.8892 48.5594C68.1554 48.4049 68.4707 48.3586 68.77 48.43C69.1007 48.4379 69.415 48.5754 69.6451 48.8131C69.8752 49.0507 70.0027 49.3692 70 49.7C70 50.3 70 50.91 70 51.51Z" fill="#7A7A7A"/>
<path d="M12.09 27.37V26.78C12.44 26.46 12.81 26.16 13.14 25.78C14.99 23.7956 16.9965 21.963 19.14 20.3C20.153 19.6964 21.1101 19.0036 22 18.23H22.39C24.6556 18.9972 26.8644 19.9228 29 21C22.8861 24.0494 17.6381 28.5889 13.74 34.2C13.0312 31.9647 12.4799 29.6824 12.09 27.37Z" fill="#EFEAEE"/>
<path d="M22 18.23C21.1339 19.0141 20.2003 19.7202 19.21 20.34C17.0664 22.003 15.06 23.8356 13.21 25.82C12.88 26.16 12.51 26.46 12.16 26.82C11.7911 24.1692 11.604 21.4963 11.6 18.82C11.6 16.96 12.55 16.17 14.38 16.45C16.9595 16.8594 19.5061 17.4543 22 18.23Z" fill="#EFEAEE"/>
<path d="M88.07 26.79C87.18 25.92 86.27 25.08 85.41 24.2C83.4414 22.2423 81.2956 20.4714 79 18.91C78.72 18.71 78.38 18.57 78.23 18.23C80.8473 17.419 83.5214 16.804 86.23 16.39C87.67 16.16 88.64 17.1 88.63 18.73C88.6283 21.4263 88.4412 24.1194 88.07 26.79Z" fill="#EFEAEE"/>
<path d="M53 58C52 58.09 51 57.23 50.06 57.29C49.12 57.35 48.12 58 47 58C46.2678 58.0107 45.5411 57.8726 44.8639 57.5941C44.1866 57.3157 43.5729 56.9026 43.06 56.38C42.7736 56.1227 42.6011 55.7622 42.5805 55.3778C42.5598 54.9933 42.6928 54.6164 42.95 54.33C43.2073 54.0436 43.5678 53.8711 43.9522 53.8504C44.3367 53.8298 44.7136 53.9627 45 54.22C46.59 55.46 47.54 55.46 49.15 54.22C49.416 53.9562 49.7754 53.8082 50.15 53.8082C50.5246 53.8082 50.8841 53.9562 51.15 54.22C52.73 55.48 53.7 55.48 55.3 54.22C55.5738 53.964 55.9377 53.8267 56.3124 53.8379C56.687 53.8491 57.0421 54.0081 57.3 54.28C57.4244 54.4195 57.5196 54.5824 57.58 54.7592C57.6404 54.936 57.6648 55.1231 57.6517 55.3095C57.6387 55.4959 57.5884 55.6778 57.504 55.8445C57.4195 56.0111 57.3026 56.1592 57.16 56.28C56.6287 56.8459 55.9829 57.2921 55.2655 57.5887C54.5482 57.8853 53.7758 58.0255 53 58Z" fill="#4D4D4D"/>
</svg>
