<svg width="97" height="97" viewBox="0 0 97 97" fill="none" xmlns="http://www.w3.org/2000/svg">
<g filter="url(#filter0_d_300_31003)">
<path d="M9.97609 88.6853C9.60129 88.4737 9.30031 88.1524 9.11365 87.7646C8.927 87.3768 8.86363 86.9412 8.93209 86.5163C8.99509 85.8953 8.93209 85.2563 8.93209 84.6263C8.89961 84.3877 8.92162 84.1449 8.99647 83.9161C9.07131 83.6873 9.19705 83.4784 9.36422 83.3052C9.5314 83.1319 9.73566 82.9988 9.96167 82.9159C10.1877 82.833 10.4295 82.8023 10.6691 82.8263C11.2991 82.8263 11.9291 82.8263 12.5591 82.8263H32.7011C32.9621 82.8263 33.2141 82.8263 33.4661 82.8263H63.8141C64.0751 82.8263 64.3271 82.8263 64.5881 82.8263H78.8981L84.5591 82.8803C83.3711 83.2043 82.1381 82.8803 80.7611 83.0963C81.048 83.3328 81.2656 83.6426 81.3908 83.9928C81.5159 84.3429 81.544 84.7204 81.4721 85.0853C81.427 85.5702 81.427 86.0583 81.4721 86.5433C81.5542 86.9653 81.4967 87.4025 81.3084 87.7889C81.12 88.1753 80.811 88.49 80.4281 88.6853H9.97609Z" fill="#6AE7D1"/>
<path d="M80.4365 88.686C80.8195 88.4907 81.1285 88.176 81.3168 87.7896C81.5052 87.4032 81.5626 86.966 81.4805 86.544C81.4355 86.059 81.4355 85.5709 81.4805 85.086C81.5525 84.7211 81.5244 84.3436 81.3992 83.9935C81.274 83.6433 81.0565 83.3335 80.7695 83.097C82.1465 82.872 83.3795 83.205 84.5675 82.881H84.7295C85.4135 82.881 86.0975 82.881 86.7815 82.881C86.9902 82.8785 87.1972 82.9182 87.3901 82.9977C87.583 83.0772 87.7578 83.1949 87.9041 83.3437C88.0504 83.4925 88.1651 83.6693 88.2413 83.8635C88.3175 84.0578 88.3536 84.2654 88.3475 84.474C88.3475 85.374 88.3475 86.274 88.3475 87.174C88.3152 87.4859 88.2185 87.7877 88.0636 88.0603C87.9087 88.333 87.6989 88.5705 87.4475 88.758L80.4365 88.686Z" fill="#06D7B3"/>
<path d="M12.5322 45.5494L10.4352 47.5834C10.2732 47.8065 10.0608 47.988 9.81516 48.1132C9.56957 48.2384 9.29782 48.3037 9.02215 48.3037C8.74648 48.3037 8.47473 48.2384 8.22914 48.1132C7.98354 47.988 7.77108 47.8065 7.60915 47.5834L5.66515 45.6304C5.46442 45.4769 5.30039 45.2807 5.18496 45.056C5.06954 44.8313 5.00563 44.5836 4.99787 44.3311C4.99012 44.0786 5.03871 43.8275 5.14012 43.5961C5.24153 43.3647 5.39321 43.1588 5.58415 42.9934C5.73715 42.8224 5.90815 42.6604 6.07015 42.4984L46.8222 1.80036C48.2442 0.324359 49.0452 0.324359 50.4942 1.80036L75.6942 27.0004C75.9102 27.2164 76.1082 27.4684 76.3152 27.7024C75.2856 29.7232 74.1345 31.6798 72.8682 33.5614L69.4572 30.2674C68.644 29.2681 67.7402 28.3461 66.7572 27.5134L60.5922 21.3304C59.7451 20.3378 58.8147 19.4194 57.8112 18.5854C55.1742 15.8854 52.5462 13.2574 49.8912 10.6204C49.7378 10.4549 49.5519 10.3228 49.3452 10.2326C49.1384 10.1423 48.9153 10.0957 48.6897 10.0957C48.464 10.0957 48.2409 10.1423 48.0341 10.2326C47.8274 10.3228 47.6415 10.4549 47.4882 10.6204C44.7882 13.2574 42.2052 15.9214 39.5682 18.5854C38.5667 19.4218 37.6366 20.3399 36.7872 21.3304L30.6222 27.5134C29.6257 28.3463 28.7069 29.2681 27.8772 30.2674L21.6402 36.4234C20.6589 37.2613 19.7552 38.186 18.9402 39.1864L12.6852 45.3514L12.5322 45.5494Z" fill="#06D7B3"/>
<path d="M32.7011 82.7992H12.5771C12.5771 80.0992 12.5771 77.3992 12.5771 74.6992H32.6561C32.6741 77.4352 32.6891 80.1352 32.7011 82.7992Z" fill="#F7B801"/>
<path d="M72.8682 33.5426C74.1345 31.661 75.2856 29.7044 76.3152 27.6836C76.5222 27.8726 76.7562 28.0436 76.9542 28.2416L91.3542 42.6416C92.6592 43.9466 92.6502 44.8016 91.3542 46.1246L89.9592 47.5196C88.8162 48.5996 87.8712 48.5996 86.8002 47.5196L84.7662 45.5486L84.6042 45.3596L79.0962 39.8696L78.2502 38.9696C77.4451 38.0626 76.5791 37.2116 75.6582 36.4226L72.8682 33.5426Z" fill="#6AE7D1"/>
<path d="M12.6035 54.1612V47.9512H34.9685C36.1115 47.9512 37.2545 47.9512 38.3975 47.9512C36.4852 49.6709 34.9526 51.7706 33.8975 54.1162L12.6035 54.1612Z" fill="#F7B801"/>
<path d="M12.5947 63.0897C12.5947 61.0197 12.5947 58.9587 12.5947 56.8887H33.0247C32.7565 58.9414 32.6362 61.0107 32.6647 63.0807L12.5947 63.0897Z" fill="#F7B801"/>
<path d="M12.5859 71.9991V65.7891H32.6559V71.9991H12.5859Z" fill="#F7B801"/>
<path d="M38.3982 47.9975C37.2552 47.9975 36.1122 47.9975 34.9692 47.9975H12.5862L12.5322 45.5945L12.6852 45.3965C13.0902 45.3965 13.4862 45.3965 13.8912 45.3965H42.7992C41.2377 46.0925 39.761 46.9652 38.3982 47.9975Z" fill="#FCE399"/>
<path d="M84.5951 45.3594L84.7571 45.5484L84.7031 47.9514H78.8801H58.9001C57.5509 46.9468 56.1035 46.0814 54.5801 45.3684C54.9851 45.3684 55.3811 45.3684 55.7861 45.3684H84.5861L84.5951 45.3594Z" fill="#FCE399"/>
<path d="M84.7034 54.1523V56.8523H64.3004L63.4004 54.1523H78.8714H84.7034Z" fill="#FCE399"/>
<path d="M33.0159 56.8973H12.5859V54.1973H33.8619L33.0159 56.8973Z" fill="#FCE399"/>
<path d="M32.6647 65.827H12.5947V63.127H32.6557L32.6647 65.827Z" fill="#FCE399"/>
<path d="M84.703 63.0898V65.7898H64.624V63.0898H84.703Z" fill="#FCE399"/>
<path d="M12.5859 72H32.6649V74.7H12.5949L12.5859 72Z" fill="#FCE399"/>
<path d="M84.703 72V74.7H64.624V72H84.703Z" fill="#FCE399"/>
<path d="M78.8887 74.7637H84.7027C84.7027 77.4577 84.7027 80.1577 84.7027 82.8637H84.5407L78.8977 82.8007C78.8857 80.1367 78.8827 77.4577 78.8887 74.7637Z" fill="#F7B801"/>
<path d="M84.7027 54.1525H78.8887C78.8887 52.1005 78.8887 50.0425 78.8887 47.9785H84.7117L84.7027 54.1525Z" fill="#F7B801"/>
<path d="M84.7027 63.0904H78.8887V56.8984H84.7027V63.0904Z" fill="#F7B801"/>
<path d="M84.7027 72.0009H78.8887V65.8359H84.7027V72.0009Z" fill="#F7B801"/>
<path d="M64.6244 71.9997V74.6997C64.6244 77.3997 64.6244 80.0997 64.6244 82.7997C64.3634 82.7997 64.1114 82.7997 63.8504 82.7997H33.4664C33.2144 82.7997 32.9624 82.7997 32.7014 82.7997C32.7014 80.1057 32.6864 77.4057 32.6564 74.6997V62.9997C32.6279 60.9298 32.7482 58.8604 33.0164 56.8077L33.8624 54.1077C34.9175 51.7622 36.4501 49.6625 38.3624 47.9427C39.7244 46.9042 41.201 46.0254 42.7634 45.3237C46.4763 43.9416 50.5599 43.9256 54.2834 45.2787L54.4544 45.3237H54.5084C56.0603 46.0581 57.5321 46.9509 58.9004 47.9877C60.8074 49.7159 62.339 51.8173 63.4004 54.1617L64.3004 56.8617C64.5658 58.9146 64.6831 60.984 64.6514 63.0537V71.9997H64.6244Z" fill="#5B274E"/>
<path d="M64.5879 82.7992C64.5879 80.0992 64.5879 77.3992 64.5879 74.6992H78.8889C78.8889 77.3932 78.8889 80.0932 78.8889 82.7992H64.5879Z" fill="#F7B801"/>
<path d="M54.3193 45.3336C50.5958 43.9805 46.5122 43.9965 42.7993 45.3786H13.9003C13.4953 45.3786 13.0993 45.3786 12.6943 45.3786L18.9133 39.2136H77.1073C77.4853 39.2136 77.9173 39.3756 78.2413 39.0156L79.0873 39.9156C78.7813 40.1496 78.8983 40.4916 78.8983 40.8156C78.8983 42.3546 78.8983 43.9026 78.8983 45.4416H55.7863C55.3813 45.4416 54.9853 45.4416 54.5803 45.4416H54.5263C54.4543 45.2886 54.4003 45.2616 54.3193 45.3336Z" fill="#F7B801"/>
<path d="M30.5771 27.4955L36.7421 21.3125H60.5472L66.7122 27.4955H30.5771Z" fill="#F7B801"/>
<path d="M78.2413 38.9791C77.9173 39.3391 77.4853 39.1771 77.1073 39.1771H18.9043C19.7193 38.1767 20.623 37.252 21.6043 36.4141H37.8043C37.8336 36.6326 37.9069 36.8429 38.0199 37.0323C38.1329 37.2216 38.2831 37.3861 38.4615 37.5157C38.6399 37.6453 38.8427 37.7373 39.0577 37.7862C39.2727 37.8351 39.4954 37.8398 39.7123 37.8001C44.5273 37.8001 49.3423 37.8001 54.1123 37.8001C55.3633 37.8001 56.6143 37.8541 57.8563 37.8001C58.245 37.8253 58.6283 37.6987 58.9255 37.4469C59.2227 37.195 59.4105 36.8376 59.4493 36.4501H75.6493C76.5697 37.2333 77.4357 38.0782 78.2413 38.9791Z" fill="#FCE399"/>
<path d="M39.5234 18.5678C42.1604 15.8678 44.7884 13.2398 47.4434 10.6028C47.5968 10.4373 47.7826 10.3053 47.9894 10.215C48.1962 10.1247 48.4193 10.0781 48.6449 10.0781C48.8705 10.0781 49.0937 10.1247 49.3005 10.215C49.5072 10.3053 49.6931 10.4373 49.8464 10.6028C52.5464 13.2398 55.1294 15.9038 57.7664 18.5678H39.5234Z" fill="#F7B801"/>
<path d="M37.8035 36.4494H21.6035L27.7955 30.2754H37.8035V36.4494Z" fill="#F7B801"/>
<path d="M75.6492 36.4322H59.4492V30.2402H69.4572L72.8682 33.5342L75.6492 36.4322Z" fill="#F7B801"/>
<path d="M69.457 30.2481H59.485C59.26 29.2131 58.891 28.8891 57.883 28.8891C56.695 28.8891 55.507 28.8891 54.283 28.8891H39.46C39.0561 28.8486 38.6525 28.9683 38.336 29.2225C38.0195 29.4767 37.8156 29.845 37.768 30.2481H27.832C28.6618 29.2489 29.5805 28.3271 30.577 27.4941H66.712C67.7107 28.3248 68.6296 29.2468 69.457 30.2481Z" fill="#FCE399"/>
<path d="M39.5232 18.5664H57.7662C58.7697 19.4005 59.7001 20.3188 60.5472 21.3114H36.7422C37.5916 20.321 38.5218 19.4028 39.5232 18.5664Z" fill="#FCE399"/>
<path d="M78.8804 45.3697C78.8804 43.8307 78.8804 42.2827 78.8804 40.7437C78.8804 40.4467 78.7634 40.1047 79.0694 39.8438L84.5774 45.3337L78.8804 45.3697Z" fill="#F7B801"/>
<path d="M63.4004 54.1623C62.339 51.8179 60.8073 49.7164 58.9004 47.9883H78.8804C78.8804 50.0523 78.8804 52.1103 78.8804 54.1623H63.4004Z" fill="#F7B801"/>
<path d="M64.6238 63.0904C64.6644 61.0213 64.5562 58.952 64.2998 56.8984H78.8888V63.0814L64.6238 63.0904Z" fill="#F7B801"/>
<path d="M64.624 72.0002V65.8262H78.889V72.0002H64.624Z" fill="#F7B801"/>
<path d="M54.3193 45.3333C54.4003 45.2613 54.4543 45.3333 54.4903 45.3783L54.3193 45.3333Z" fill="#F7B801"/>
<path d="M37.8037 30.2398C37.8512 29.8367 38.0552 29.4683 38.3717 29.2141C38.6882 28.96 39.0918 28.8402 39.4957 28.8808H54.3187C54.6556 29.1856 54.9134 29.5676 55.0702 29.994C55.2269 30.4203 55.2779 30.8784 55.2187 31.3288C55.1557 32.8048 55.2187 34.2898 55.2187 35.7748C55.2618 36.1806 55.1829 36.59 54.9921 36.9507C54.8013 37.3114 54.5073 37.607 54.1477 37.7998C49.3417 37.7998 44.5267 37.7998 39.7477 37.7998C39.5335 37.8397 39.3134 37.8363 39.1005 37.7896C38.8876 37.743 38.6862 37.6541 38.5083 37.5282C38.3304 37.4023 38.1795 37.242 38.0647 37.0568C37.9499 36.8715 37.8733 36.6651 37.8397 36.4498L37.8037 30.2398Z" fill="#5B274E"/>
<path d="M54.1484 37.801C54.4953 37.6056 54.7778 37.3135 54.9616 36.9603C55.1454 36.6072 55.2225 36.2082 55.1834 35.812C55.1834 34.327 55.1294 32.842 55.1834 31.366C55.2426 30.9156 55.1917 30.4575 55.0349 30.0311C54.8781 29.6048 54.6203 29.2228 54.2834 28.918C55.4714 28.918 56.6594 28.918 57.8834 28.918C58.8914 28.918 59.2604 29.242 59.4854 30.277V36.496C59.4359 36.8754 59.2436 37.2217 58.9475 37.4641C58.6515 37.7066 58.2742 37.8271 57.8924 37.801C56.6504 37.801 55.3994 37.801 54.1484 37.801Z" fill="#7C5271"/>
</g>
<defs>
<filter id="filter0_d_300_31003" x="0" y="0" width="98" height="98" filterUnits="userSpaceOnUse" color-interpolation-filters="sRGB">
<feFlood flood-opacity="0" result="BackgroundImageFix"/>
<feColorMatrix in="SourceAlpha" type="matrix" values="0 0 0 0 0 0 0 0 0 0 0 0 0 0 0 0 0 0 127 0" result="hardAlpha"/>
<feOffset dy="4"/>
<feGaussianBlur stdDeviation="2"/>
<feComposite in2="hardAlpha" operator="out"/>
<feColorMatrix type="matrix" values="0 0 0 0 0 0 0 0 0 0 0 0 0 0 0 0 0 0 0.25 0"/>
<feBlend mode="normal" in2="BackgroundImageFix" result="effect1_dropShadow_300_31003"/>
<feBlend mode="normal" in="SourceGraphic" in2="effect1_dropShadow_300_31003" result="shape"/>
</filter>
</defs>
</svg>
