<svg width="29" height="29" viewBox="0 0 29 29" fill="none" xmlns="http://www.w3.org/2000/svg">
<path d="M13.7686 2.67727C13.9616 2.60502 14.1709 2.5906 14.3717 2.63574C15.3627 2.61758 16.3516 2.73399 17.3122 2.98188C18.6303 3.34376 19.8517 4.00143 20.8865 4.90645L20.9921 4.98261C21.0875 5.08645 21.1727 5.20068 21.2749 5.2976C22.195 6.21507 22.9564 7.28346 23.5272 8.45791C23.9497 9.29904 24.2631 10.1886 24.6209 11.0575C24.9267 12.0966 25.1781 13.1516 25.3739 14.2178C25.5197 15.0018 25.6232 15.7934 25.684 16.5889C25.7181 17.1912 25.7658 17.7935 25.8101 18.3958C25.4103 18.8728 24.9788 19.3216 24.5187 19.7388C22.893 21.2633 21.1446 22.6469 19.2919 23.8752C17.8267 24.8618 16.3071 25.7479 14.7636 26.5994C14.6839 26.652 14.591 26.68 14.4961 26.68C14.4011 26.68 14.3082 26.652 14.2286 26.5994C11.9401 25.377 9.74328 23.9852 7.6559 22.4353C6.70301 21.7325 5.79274 20.9719 4.93005 20.1576C5.02975 19.7411 5.06878 19.3119 5.0459 18.8838C5.12693 17.661 5.28513 16.4446 5.51952 15.2424C5.95814 12.6324 6.84874 10.1221 8.14996 7.82792C9.04645 6.25127 10.2738 4.89455 11.7447 3.85417C12.3625 3.42646 13.0254 3.07004 13.7209 2.7915C13.7209 2.7915 13.9526 2.79843 13.7686 2.67727ZM15.5132 13.6189C15.7666 13.6187 16.0176 13.5674 16.2515 13.4682C16.4854 13.369 16.6977 13.2238 16.8761 13.0409C16.9249 12.9954 16.9643 12.9407 16.9923 12.8797C17.0202 12.8187 17.0361 12.7528 17.0389 12.6856C17.0418 12.6184 17.0315 12.5513 17.0089 12.4882C16.9862 12.425 16.9515 12.367 16.9068 12.3174C16.862 12.2679 16.8081 12.2278 16.7481 12.1994C16.6881 12.171 16.6232 12.1549 16.557 12.152C16.4909 12.1491 16.4249 12.1595 16.3627 12.1825C16.3005 12.2056 16.2434 12.2408 16.1946 12.2863C15.6563 12.7086 15.3632 12.7155 14.8317 12.2863C14.7333 12.19 14.602 12.1363 14.4654 12.1363C14.3288 12.1363 14.1975 12.19 14.0991 12.2863C13.571 12.7086 13.278 12.7017 12.7362 12.2863C12.6874 12.2408 12.6303 12.2056 12.5681 12.1825C12.506 12.1595 12.4399 12.1491 12.3738 12.152C12.3077 12.1549 12.2427 12.171 12.1827 12.1994C12.1227 12.2278 12.0688 12.2679 12.0241 12.3174C11.9793 12.367 11.9446 12.425 11.922 12.4882C11.8993 12.5513 11.8891 12.6184 11.8919 12.6856C11.8948 12.7528 11.9106 12.8187 11.9385 12.8797C11.9665 12.9407 12.006 12.9954 12.0547 13.0409C12.2315 13.226 12.4435 13.3727 12.6778 13.4721C12.9121 13.5714 13.1638 13.6214 13.4177 13.6189C13.7822 13.6189 14.0991 13.3697 14.4399 13.3663C14.7806 13.3628 15.1418 13.6259 15.5132 13.6189V13.6189ZM14.491 10.5452H13.4994C13.2473 10.5452 13.0429 10.6144 12.9952 10.8913C12.9475 11.1682 13.1076 11.2998 13.3359 11.3828C14.0917 11.677 14.9278 11.677 15.6835 11.3828C15.905 11.2998 16.0651 11.1578 16.0243 10.8913C15.9834 10.6248 15.7721 10.5452 15.52 10.5452H14.491ZM9.288 10.5694C9.27947 10.7343 9.27947 10.8995 9.288 11.0644C9.29556 11.1854 9.3472 11.2993 9.43286 11.3837C9.51853 11.4682 9.63208 11.5172 9.7514 11.5213C9.87642 11.5271 9.9988 11.4835 10.0928 11.3996C10.1869 11.3157 10.2452 11.198 10.2557 11.0713C10.2915 10.7435 10.2915 10.4126 10.2557 10.0848C10.2469 9.96207 10.1916 9.8476 10.1013 9.76557C10.011 9.68354 9.89287 9.64038 9.77184 9.64519C9.64611 9.64141 9.52394 9.68787 9.43156 9.7746C9.33918 9.86132 9.28397 9.9814 9.27778 10.109C9.27437 10.2509 9.2846 10.4171 9.2846 10.5694H9.288ZM19.6939 10.5971C19.6939 10.4448 19.6939 10.2925 19.6939 10.1367C19.6931 10.0036 19.6408 9.87605 19.5485 9.78157C19.4561 9.68709 19.3309 9.63315 19.1999 9.63134C19.0727 9.6304 18.9503 9.68036 18.8591 9.7704C18.7679 9.86044 18.7153 9.98333 18.7126 10.1125C18.6905 10.4294 18.6905 10.7475 18.7126 11.0644C18.7152 11.1277 18.7302 11.19 18.7567 11.2474C18.7833 11.3048 18.8208 11.3562 18.8671 11.3988C18.9134 11.4413 18.9676 11.474 19.0265 11.4951C19.0853 11.5161 19.1478 11.525 19.2101 11.5213C19.3361 11.5195 19.4564 11.4679 19.5455 11.3774C19.6345 11.2869 19.6854 11.1647 19.6871 11.0367C19.7042 10.8948 19.6939 10.7529 19.6939 10.5971Z" fill="#FDF1CC"/>
<path d="M13.8432 2.60999C14.0358 2.73254 13.8075 2.72204 13.7932 2.72554C13.065 3.0073 12.3711 3.36785 11.7243 3.80052C10.1844 4.85296 8.89948 6.22541 7.96094 7.82034C6.59415 10.1425 5.65812 12.6844 5.1964 15.3277C4.95102 16.5439 4.7854 17.7744 4.70057 19.0114C4.72452 19.4444 4.68366 19.8786 4.57929 20.3C3.91837 19.7587 3.30394 19.1649 2.74221 18.5247C2.82648 16.0308 3.24384 13.5586 3.98358 11.1714L3.86943 11.0838C3.72317 11.2589 3.58762 11.434 3.43067 11.6091C2.36053 12.7261 0.969341 12.4004 0.420001 10.9087C0.312126 10.5855 0.270766 10.2445 0.298322 9.90548C0.325879 9.56644 0.421804 9.23617 0.580523 8.93385C0.824459 8.44878 1.10216 7.98079 1.41167 7.53321C1.84686 6.8539 2.08586 6.07655 2.56742 5.43226C3.54125 4.06664 5.00021 3.71649 6.52695 4.31876C6.85919 4.43316 7.17743 4.58349 7.47581 4.76696C7.57064 4.84479 7.69266 4.88321 7.81591 4.87405C7.93917 4.8649 8.05391 4.80888 8.13573 4.71794C8.73797 4.20904 9.41503 3.79233 10.144 3.48188C11.2988 2.93346 12.5606 2.63606 13.8432 2.60999V2.60999Z" fill="#F7B801"/>
<path d="M24.9785 11.022C24.6209 10.1533 24.2633 9.27078 23.8306 8.43308C23.2316 7.26342 22.4325 6.19938 21.4669 5.28565C21.3596 5.18913 21.2702 5.07536 21.17 4.97194C21.89 4.44717 22.7517 4.13359 23.6518 4.06874C24.2464 4.02399 24.8414 4.15174 25.3601 4.43556C25.8788 4.71938 26.2976 5.1463 26.5626 5.66141C27.1813 6.73009 27.7892 7.80221 28.3828 8.88813C28.6275 9.29518 28.7392 9.76387 28.7035 10.2331C28.6678 10.7023 28.4863 11.1502 28.1825 11.5185C27.5782 12.3044 26.5841 12.432 25.6794 11.6736C25.4624 11.4403 25.2281 11.2226 24.9785 11.022Z" fill="#F7B801"/>
<path d="M15.5106 13.6294C15.134 13.6294 14.8196 13.379 14.4741 13.3824C14.1286 13.3858 13.8073 13.6395 13.4376 13.6294C13.1802 13.6318 12.9249 13.5829 12.6874 13.4858C12.4498 13.3887 12.2348 13.2453 12.0556 13.0643C11.9557 12.9746 11.8963 12.8496 11.8905 12.717C11.8847 12.5844 11.9329 12.4549 12.0245 12.3571C12.1161 12.2593 12.2437 12.2011 12.3791 12.1954C12.5145 12.1897 12.6467 12.2369 12.7466 12.3266C13.2925 12.7395 13.5896 12.7462 14.1286 12.3266C14.2284 12.2326 14.3615 12.18 14.5 12.18C14.6385 12.18 14.7716 12.2326 14.8714 12.3266C15.407 12.7395 15.7041 12.7327 16.2534 12.3266C16.3029 12.2822 16.3608 12.2477 16.4239 12.2252C16.4869 12.2027 16.5539 12.1926 16.6209 12.1954C16.688 12.1982 16.7538 12.214 16.8147 12.2417C16.8755 12.2694 16.9302 12.3087 16.9755 12.3571C17.0209 12.4055 17.0561 12.4622 17.0791 12.524C17.1021 12.5857 17.1124 12.6513 17.1095 12.717C17.1067 12.7827 17.0906 12.8471 17.0623 12.9067C17.0339 12.9663 16.9939 13.0199 16.9444 13.0643C16.7574 13.2493 16.5338 13.3948 16.2872 13.492C16.0406 13.5892 15.7763 13.6359 15.5106 13.6294V13.6294Z" fill="#4D4D4D"/>
<path d="M14.4878 10.44H15.4617C15.7019 10.44 15.8967 10.5159 15.9421 10.8194C15.9876 11.123 15.8318 11.2671 15.6175 11.3582C14.8975 11.6806 14.1009 11.6806 13.3809 11.3582C13.1666 11.2671 13.0173 11.1116 13.0562 10.8194C13.0952 10.5273 13.2965 10.44 13.5367 10.44H14.4878Z" fill="#4D4D4D"/>
<path d="M9.28882 10.5698C9.28882 10.4051 9.28882 10.2366 9.28882 10.072C9.29413 9.93394 9.34146 9.80411 9.42064 9.71033C9.49982 9.61655 9.60454 9.56631 9.71231 9.5704C9.81605 9.5652 9.9173 9.61187 9.99469 9.70057C10.0721 9.78927 10.1195 9.91304 10.127 10.0457C10.1577 10.4002 10.1577 10.758 10.127 11.1125C10.1181 11.2508 10.0672 11.3792 9.98534 11.4702C9.90347 11.5611 9.79709 11.6074 9.68894 11.5991C9.58514 11.5974 9.48565 11.5456 9.41037 11.454C9.3351 11.3624 9.2896 11.2378 9.28298 11.105C9.27761 10.9266 9.27956 10.7479 9.28882 10.5698V10.5698Z" fill="#4D4D4D"/>
<path d="M19.714 10.4637C19.714 10.5982 19.714 10.7295 19.714 10.8608C19.7125 10.9792 19.6682 11.0923 19.5905 11.1761C19.5129 11.2598 19.408 11.3076 19.2982 11.3092C19.2438 11.3127 19.1894 11.3044 19.1381 11.285C19.0867 11.2655 19.0395 11.2352 18.9991 11.1959C18.9587 11.1565 18.926 11.1089 18.9029 11.0558C18.8798 11.0026 18.8667 10.9451 18.8645 10.8864C18.8451 10.5932 18.8451 10.2989 18.8645 10.0056C18.8691 9.88781 18.916 9.77653 18.9952 9.69526C19.0745 9.61399 19.1799 9.56909 19.2892 9.57002C19.4035 9.5717 19.5126 9.6216 19.5931 9.70903C19.6737 9.79646 19.7192 9.91444 19.72 10.0377C19.72 10.1818 19.72 10.3227 19.72 10.4637H19.714Z" fill="#4D4D4D"/>
</svg>
