<svg width="100" height="100" viewBox="0 0 100 100" fill="none" xmlns="http://www.w3.org/2000/svg">
<path d="M47.4778 9.23203C48.1432 8.98287 48.865 8.93315 49.5574 9.0888C52.9746 9.02617 56.3846 9.42759 59.6971 10.2824C64.2424 11.5303 68.4541 13.7981 72.0222 16.9189L72.3864 17.1814C72.7154 17.5395 73.0091 17.9334 73.3616 18.2676C76.5344 21.4313 79.1599 25.1154 81.1279 29.1653C82.5849 32.0657 83.6658 35.1333 84.8995 38.1292C85.9541 41.7126 86.8208 45.3502 87.4961 49.0269C87.9988 51.7304 88.3558 54.4599 88.5653 57.2031C88.6828 59.2799 88.8473 61.3568 89 63.4337C87.6214 65.0788 86.1336 66.6262 84.547 68.0649C78.9412 73.3217 72.9124 78.0929 66.5235 82.3285C61.4713 85.7302 56.2311 88.7859 50.9086 91.7222C50.6341 91.9035 50.3137 92 49.9863 92C49.6589 92 49.3385 91.9035 49.064 91.7222C41.1726 87.5071 33.5973 82.7078 26.3995 77.3631C23.1136 74.9396 19.9748 72.3168 17 69.5091C17.3438 68.0727 17.4784 66.5928 17.3995 65.1167C17.6789 60.8999 18.2244 56.7057 19.0326 52.5599C20.5451 43.56 23.6161 34.9037 28.1031 26.9929C31.1945 21.5562 35.4266 16.8778 40.4987 13.2903C42.6292 11.8154 44.9148 10.5864 47.3133 9.62592C47.3133 9.62592 48.1123 9.64979 47.4778 9.23203ZM53.4935 46.9619C54.3675 46.961 55.2328 46.7843 56.0394 46.4422C56.846 46.1001 57.578 45.5993 58.1932 44.9686C58.3614 44.8119 58.4975 44.623 58.5939 44.4128C58.6902 44.2026 58.7448 43.9752 58.7547 43.7435C58.7645 43.5119 58.7293 43.2805 58.6511 43.0627C58.5729 42.8449 58.4533 42.6448 58.299 42.474C58.1447 42.3031 57.9587 42.1648 57.7518 42.0669C57.5449 41.9691 57.3211 41.9136 57.0931 41.9036C56.865 41.8936 56.6373 41.9294 56.4229 42.0088C56.2085 42.0882 56.0115 42.2098 55.8433 42.3665C53.9869 43.8227 52.9765 43.8466 51.1436 42.3665C50.8043 42.0347 50.3516 41.8493 49.8805 41.8493C49.4095 41.8493 48.9568 42.0347 48.6175 42.3665C46.7963 43.8227 45.7859 43.7989 43.9178 42.3665C43.7496 42.2098 43.5526 42.0882 43.3382 42.0088C43.1238 41.9294 42.8961 41.8936 42.668 41.9036C42.44 41.9136 42.2162 41.9691 42.0093 42.0669C41.8023 42.1648 41.6164 42.3031 41.4621 42.474C41.3078 42.6448 41.1882 42.8449 41.11 43.0627C41.0318 43.2805 40.9966 43.5119 41.0064 43.7435C41.0163 43.9752 41.0709 44.2026 41.1672 44.4128C41.2636 44.623 41.3997 44.8119 41.5679 44.9686C42.1775 45.6069 42.9084 46.1128 43.7163 46.4554C44.5242 46.7981 45.3922 46.9704 46.2676 46.9619C47.5248 46.9619 48.6175 46.1025 49.7924 46.0906C50.9674 46.0787 52.2128 46.9858 53.4935 46.9619ZM49.9687 36.3627H46.5496C45.6802 36.3627 44.9752 36.6014 44.8107 37.5563C44.6462 38.5112 45.1984 38.9648 45.9856 39.2512C48.5917 40.2655 51.4748 40.2655 54.0809 39.2512C54.8446 38.9648 55.3969 38.4754 55.2559 37.5563C55.1149 36.6372 54.3864 36.3627 53.517 36.3627H49.9687ZM32.0274 36.4462C31.998 37.0148 31.998 37.5845 32.0274 38.1531C32.0535 38.5705 32.2315 38.963 32.5269 39.2543C32.8223 39.5456 33.2139 39.7147 33.6253 39.7287C34.0564 39.7487 34.4784 39.5983 34.8027 39.3089C35.1269 39.0196 35.3282 38.6139 35.3642 38.177C35.4876 37.0465 35.4876 35.9057 35.3642 34.7752C35.3341 34.352 35.1432 33.9573 34.8318 33.6744C34.5205 33.3916 34.1132 33.2427 33.6958 33.2593C33.2623 33.2463 32.841 33.4065 32.5224 33.7056C32.2039 34.0046 32.0135 34.4187 31.9922 34.8588C31.9804 35.3481 32.0157 35.9211 32.0157 36.4462H32.0274ZM67.9099 36.5417C67.9099 36.0166 67.9099 35.4914 67.9099 34.9542C67.9069 34.4951 67.7268 34.0554 67.4083 33.7296C67.0898 33.4038 66.6582 33.2178 66.2063 33.2116C65.7678 33.2083 65.3457 33.3806 65.0313 33.6911C64.7168 34.0016 64.5354 34.4253 64.5261 34.8707C64.4497 35.9635 64.4497 37.0603 64.5261 38.1531C64.5351 38.3716 64.5868 38.5861 64.6783 38.7841C64.7697 38.982 64.899 39.1595 65.0587 39.3062C65.2184 39.4528 65.4052 39.5657 65.6083 39.6383C65.8114 39.7108 66.0266 39.7415 66.2415 39.7287C66.6759 39.7225 67.0908 39.5445 67.3979 39.2324C67.7051 38.9203 67.8804 38.4989 67.8864 38.0576C67.9452 37.5682 67.9099 37.0789 67.9099 36.5417Z" fill="#FDF1CC"/>
<path d="M47.7349 9C48.3991 9.4226 47.6119 9.38638 47.5627 9.39846C45.0517 10.37 42.6588 11.6133 40.4284 13.1053C35.1184 16.7344 30.6877 21.467 27.4514 26.9667C22.7383 34.9743 19.5106 43.7394 17.9185 52.8543C17.0723 57.0482 16.5013 61.291 16.2087 65.5566C16.2913 67.0498 16.1504 68.5469 15.7905 70C13.5115 68.1334 11.3928 66.0859 9.45576 63.8783C9.74636 55.2787 11.1855 46.7538 13.7363 38.522L13.3427 38.2201C12.8384 38.8238 12.371 39.4276 11.8298 40.0313C8.13961 43.883 3.34242 42.7601 1.44815 37.6164C1.07616 36.5019 0.933539 35.3259 1.02856 34.1569C1.12359 32.9878 1.45436 31.8489 2.00167 30.8064C2.84283 29.1338 3.80043 27.52 4.86768 25.9766C6.36834 23.6342 7.19247 20.9537 8.85304 18.732C12.2111 14.023 17.242 12.8155 22.5066 14.8923C23.6522 15.2868 24.7496 15.8052 25.7785 16.4378C26.1055 16.7062 26.5263 16.8387 26.9513 16.8071C27.3763 16.7756 27.772 16.5824 28.0541 16.2688C30.1308 14.514 32.4655 13.077 34.9793 12.0065C38.9614 10.1154 43.3122 9.08991 47.7349 9Z" fill="#F7B801"/>
<path d="M86.1325 38.007C84.8994 35.0114 83.6663 31.9682 82.1742 29.0796C80.1088 25.0463 77.3533 21.3772 74.0235 18.2264C73.6535 17.8935 73.3453 17.5013 73 17.1446C75.4827 15.3351 78.4539 14.2538 81.5577 14.0301C83.6082 13.8758 85.6597 14.3164 87.4484 15.295C89.2371 16.2737 90.6812 17.7459 91.5951 19.5221C93.7284 23.2072 95.8246 26.9042 97.8716 30.6487C98.7153 32.0524 99.1007 33.6685 98.9775 35.2864C98.8544 36.9044 98.2283 38.449 97.181 39.7188C95.0971 42.4291 91.6691 42.869 88.5494 40.2537C87.8012 39.4495 86.9934 38.6986 86.1325 38.007Z" fill="#F7B801"/>
<path d="M53.4848 46.9979C52.1862 46.9979 51.102 46.1345 49.9106 46.1461C48.7193 46.1578 47.6113 47.0329 46.3365 46.9979C45.4488 47.0062 44.5686 46.8378 43.7494 46.5028C42.9302 46.1678 42.1891 45.6733 41.5709 45.0493C41.2265 44.7399 41.0217 44.3091 41.0016 43.8517C40.9815 43.3944 41.1477 42.948 41.4637 42.6107C41.7797 42.2734 42.2195 42.0728 42.6865 42.0531C43.1535 42.0334 43.6093 42.1962 43.9537 42.5057C45.8361 43.9292 46.8607 43.9525 48.7193 42.5057C49.0633 42.1812 49.5224 42 50 42C50.4776 42 50.9367 42.1812 51.2807 42.5057C53.1274 43.9292 54.152 43.9058 56.0463 42.5057C56.2168 42.3524 56.4165 42.2336 56.6339 42.1559C56.8514 42.0783 57.0823 42.0433 57.3135 42.0531C57.5447 42.0629 57.7717 42.1171 57.9815 42.2128C58.1913 42.3084 58.3798 42.4437 58.5363 42.6107C58.6927 42.7777 58.8141 42.9733 58.8934 43.1862C58.9726 43.3991 59.0083 43.6253 58.9984 43.8517C58.9884 44.0782 58.933 44.3005 58.8353 44.506C58.7376 44.7115 58.5996 44.8961 58.4291 45.0493C57.7842 45.6872 57.0129 46.1891 56.1626 46.5242C55.3123 46.8593 54.4011 47.0205 53.4848 46.9979Z" fill="#4D4D4D"/>
<path d="M49.9578 36H53.316C54.1444 36 54.816 36.2617 54.9727 37.3083C55.1294 38.355 54.5921 38.8522 53.8533 39.1662C51.3704 40.2779 48.6236 40.2779 46.1407 39.1662C45.4019 38.8522 44.887 38.3158 45.0213 37.3083C45.1557 36.3009 45.8497 36 46.678 36H49.9578Z" fill="#4D4D4D"/>
<path d="M32.0303 36.4474C32.0303 35.8795 32.0303 35.2987 32.0303 34.7308C32.0486 34.255 32.2118 33.8073 32.4849 33.4839C32.7579 33.1605 33.119 32.9873 33.4906 33.0014C33.8483 32.9834 34.1975 33.1444 34.4643 33.4502C34.7312 33.7561 34.8948 34.1829 34.9207 34.6405C35.0264 35.8629 35.0264 37.0965 34.9207 38.3189C34.8898 38.796 34.7144 39.2387 34.4321 39.5522C34.1498 39.8658 33.783 40.0253 33.41 39.9967C33.0521 39.9911 32.709 39.8125 32.4495 39.4966C32.1899 39.1807 32.033 38.7509 32.0102 38.2931C31.9917 37.6778 31.9984 37.0617 32.0303 36.4474Z" fill="#4D4D4D"/>
<path d="M67.9795 36.0815C67.9795 36.5454 67.9795 36.9983 67.9795 37.4511C67.9742 37.8594 67.8214 38.2494 67.5536 38.5382C67.2858 38.8269 66.9241 38.9916 66.5455 38.9974C66.3581 39.0093 66.1705 38.9808 65.9934 38.9137C65.8164 38.8466 65.6535 38.7421 65.5143 38.6064C65.3751 38.4707 65.2623 38.3065 65.1826 38.1233C65.1029 37.9401 65.0578 37.7416 65.0499 37.5394C64.9834 36.5283 64.9834 35.5133 65.0499 34.5021C65.0659 34.0959 65.2275 33.7121 65.5008 33.4319C65.7741 33.1517 66.1376 32.9968 66.5147 33C66.9088 33.0058 67.285 33.1779 67.5627 33.4794C67.8403 33.7809 67.9974 34.1877 68 34.6126C68 35.1096 68 35.5956 68 36.0815H67.9795Z" fill="#4D4D4D"/>
</svg>
