<svg width="48" height="48" viewBox="0 0 48 48" fill="none" xmlns="http://www.w3.org/2000/svg">
<path d="M0.47998 22.0271C0.77278 21.3743 0.801581 20.6543 1.03198 19.9823C1.41766 18.6949 2.02519 17.4848 2.82718 16.4063C4.44478 14.3615 6.75358 14.3519 8.34238 16.4063C9.6431 18.1689 10.4366 20.2538 10.6368 22.4351C10.7783 23.5353 10.5413 24.6508 9.96478 25.5983C9.45395 26.4627 8.69902 27.1568 7.79487 27.5934C6.89073 28.0299 5.87771 28.1895 4.88314 28.0521C3.88857 27.9146 2.95681 27.4862 2.20499 26.8208C1.45316 26.1553 0.914803 25.2825 0.65758 24.3119C0.61918 24.1631 0.65758 23.9759 0.48958 23.8607L0.47998 22.0271Z" fill="#F7B801"/>
<path d="M23.9568 16.9152C26.037 16.8933 28.0429 17.6877 29.544 19.128C30.5023 19.9737 31.2728 21.0107 31.806 22.1722C32.3393 23.3338 32.6233 24.5941 32.64 25.872C32.6247 26.5216 32.8107 27.16 33.1724 27.6996C33.5342 28.2393 34.0541 28.6539 34.6608 28.8864C35.8959 29.4222 36.9851 30.2454 37.8375 31.2874C38.69 32.3294 39.2811 33.5601 39.5616 34.8768C39.9999 36.8326 39.7485 38.8797 38.8501 40.6713C37.9517 42.4629 36.4615 43.8887 34.632 44.7072C33.5934 45.188 32.4675 45.4513 31.3234 45.481C30.1794 45.5107 29.0413 45.3062 27.9792 44.88C26.706 44.3343 25.3414 44.0331 23.9568 43.992V16.9152Z" fill="#F7B801"/>
<path d="M23.9568 16.9153V43.9921C22.5507 44.0135 21.1633 44.3171 19.8768 44.8849C17.7667 45.783 15.3863 45.8061 13.2592 44.9492C11.1321 44.0922 9.43253 42.4253 8.5344 40.3153C7.63627 38.2052 7.61315 35.8248 8.47011 33.6977C9.32708 31.5706 10.9939 29.871 13.104 28.9729C13.9388 28.6643 14.6251 28.05 15.024 27.2545C15.2119 26.7061 15.3061 26.1301 15.3024 25.5505C15.5952 21.9793 17.304 19.3441 20.496 17.7025C21.5668 17.1581 22.7559 16.8876 23.9568 16.9153V16.9153Z" fill="#F7B801"/>
<path d="M31.0992 15.8832C30.3878 15.8813 29.6846 15.7307 29.0348 15.4409C28.3851 15.1512 27.8031 14.7288 27.3262 14.2009C26.8493 13.673 26.4881 13.0511 26.2658 12.3753C26.0435 11.6995 25.9649 10.9847 26.0352 10.2768C26.2336 8.06229 27.0373 5.94505 28.3584 4.15676C28.6311 3.7611 28.9807 3.42452 29.3865 3.16719C29.7923 2.90986 30.2459 2.73707 30.72 2.65916C31.2167 2.60209 31.7199 2.66467 32.1875 2.8417C32.6551 3.01872 33.0736 3.30504 33.408 3.67676C34.3569 4.67587 35.0602 5.88208 35.4624 7.19996C35.9721 8.46432 36.2109 9.82156 36.1632 11.184C36.0654 12.4608 35.4897 13.6537 34.551 14.5248C33.6123 15.3958 32.3797 15.8809 31.0992 15.8832V15.8832Z" fill="#F7B801"/>
<path d="M16.9056 15.8833C16.1998 15.8938 15.4994 15.7574 14.8491 15.4828C14.1987 15.2082 13.6126 14.8014 13.1278 14.2882C12.6431 13.775 12.2703 13.1666 12.0332 12.5017C11.7961 11.8368 11.6998 11.1298 11.7504 10.4257C11.9015 8.16562 12.7052 5.99795 14.064 4.1857C14.5998 3.40929 15.4182 2.87346 16.344 2.6929C16.8523 2.61678 17.3714 2.66817 17.8549 2.84244C18.3383 3.01671 18.7709 3.30841 19.1136 3.6913C20.0632 4.68592 20.7697 5.88687 21.1776 7.2001C21.6124 8.34195 21.8619 9.54592 21.9168 10.7665C21.914 11.9684 21.489 13.131 20.716 14.0514C19.9431 14.9717 18.8713 15.5913 17.688 15.8017C17.4307 15.8558 17.1685 15.8832 16.9056 15.8833Z" fill="#F7B801"/>
<path d="M42.6192 28.1135C39.3984 28.1135 37.0752 25.7135 37.2528 22.7855C37.3648 20.4837 38.1677 18.2691 39.5568 16.4303C39.8344 16.0063 40.201 15.6479 40.6313 15.3801C41.0615 15.1124 41.545 14.9417 42.048 14.8799C43.3392 14.7599 44.28 15.4127 45.0336 16.3583C46.3026 18.0511 47.0993 20.0504 47.3424 22.1519C47.564 23.398 47.3032 24.6816 46.6128 25.7423C46.1968 26.4385 45.6137 27.0198 44.9164 27.4339C44.2191 27.8479 43.4296 28.0815 42.6192 28.1135V28.1135Z" fill="#F7B801"/>
</svg>
