<svg width="296" height="81" viewBox="0 0 296 81" fill="none" xmlns="http://www.w3.org/2000/svg">
<path d="M0.810059 37.1709C1.30416 36.0693 1.35276 34.8543 1.74156 33.7203C2.3924 31.5478 3.41759 29.5057 4.77096 27.6858C7.50066 24.2352 11.3968 24.219 14.0779 27.6858C16.2728 30.6601 17.6118 34.1784 17.9497 37.8594C18.1884 39.7159 17.7885 41.5983 16.8157 43.1973C15.9536 44.6559 14.6797 45.8272 13.1539 46.5639C11.6282 47.3006 9.91873 47.5699 8.24039 47.338C6.56205 47.106 4.98971 46.3831 3.72101 45.2601C2.4523 44.1372 1.54382 42.6643 1.10976 41.0265C1.04496 40.7754 1.10976 40.4595 0.826259 40.2651L0.810059 37.1709Z" fill="#F7B801"/>
<path d="M40.4271 28.5444C43.9375 28.5074 47.3224 29.848 49.8555 32.2785C51.4726 33.7056 52.7729 35.4555 53.6727 37.4156C54.5726 39.3756 55.0519 41.5024 55.08 43.659C55.0542 44.7551 55.368 45.8324 55.9785 46.7431C56.5891 47.6538 57.4664 48.3533 58.4901 48.7458C60.5744 49.6499 62.4123 51.039 63.8509 52.7974C65.2895 54.5558 66.287 56.6326 66.7602 58.8546C67.4998 62.1549 67.0757 65.6094 65.5596 68.6327C64.0435 71.656 61.5288 74.0621 58.4415 75.4434C56.6889 76.2546 54.789 76.699 52.8584 76.7491C50.9277 76.7993 49.0073 76.4542 47.2149 75.735C45.0664 74.8141 42.7637 74.3057 40.4271 74.2365V28.5444Z" fill="#F7B801"/>
<path d="M40.4271 28.5444V74.2365C38.0544 74.2727 35.7131 74.785 33.5421 75.7431C29.9814 77.2587 25.9644 77.2977 22.3749 75.8516C18.7854 74.4055 15.9174 71.5926 14.4018 68.0319C12.8862 64.4712 12.8472 60.4542 14.2933 56.8647C15.7394 53.2752 18.5523 50.4072 22.113 48.8916C23.5217 48.3709 24.6798 47.3343 25.353 45.9918C25.6701 45.0665 25.829 44.0944 25.8228 43.1163C26.3169 37.0899 29.2005 32.643 34.587 29.8728C36.394 28.9541 38.4005 28.4977 40.4271 28.5444V28.5444Z" fill="#F7B801"/>
<path d="M52.4799 26.8029C51.2794 26.7997 50.0928 26.5455 48.9963 26.0567C47.8998 25.5678 46.9177 24.855 46.113 23.9641C45.3083 23.0732 44.6988 22.0238 44.3236 20.8834C43.9484 19.743 43.8159 18.5368 43.9344 17.3421C44.2692 13.6052 45.6255 10.0323 47.8548 7.01459C48.3149 6.34691 48.905 5.77894 49.5898 5.3447C50.2746 4.91045 51.0399 4.61887 51.84 4.48739C52.6783 4.39108 53.5274 4.4967 54.3165 4.79543C55.1056 5.09415 55.8117 5.57732 56.376 6.20459C57.9773 7.89058 59.1642 9.92606 59.8428 12.15C60.703 14.2836 61.1059 16.5739 61.0254 18.873C60.8603 21.0276 59.8888 23.0407 58.3048 24.5106C56.7209 25.9805 54.6409 26.799 52.4799 26.8029V26.8029Z" fill="#F7B801"/>
<path d="M28.5282 26.8029C27.337 26.8206 26.1552 26.5904 25.0578 26.127C23.9603 25.6636 22.9712 24.9772 22.1532 24.1112C21.3352 23.2451 20.7061 22.2185 20.306 21.0965C19.9058 19.9744 19.7433 18.7814 19.8288 17.5932C20.0837 13.7793 21.4399 10.1214 23.733 7.06321C24.6371 5.75303 26.0181 4.84881 27.5805 4.54411C28.4381 4.41566 29.3142 4.50238 30.13 4.79646C30.9458 5.09055 31.6758 5.58279 32.2542 6.22891C33.8566 7.90734 35.0487 9.93395 35.7372 12.15C36.4708 14.0769 36.8919 16.1086 36.9846 18.1683C36.9798 20.1965 36.2626 22.1585 34.9583 23.7116C33.6539 25.2647 31.8453 26.3101 29.8485 26.6652C29.4143 26.7566 28.9719 26.8027 28.5282 26.8029Z" fill="#F7B801"/>
<path d="M71.9199 47.4417C66.4848 47.4417 62.5644 43.3917 62.8641 38.4507C63.0531 34.5664 64.4079 30.8292 66.7521 27.7263C67.2204 27.0107 67.8392 26.406 68.5653 25.9541C69.2913 25.5022 70.1072 25.2142 70.956 25.11C73.1349 24.9075 74.7225 26.0091 75.9942 27.6048C78.1356 30.4612 79.4801 33.8351 79.8903 37.3815C80.2643 39.4841 79.8241 41.6503 78.6591 43.4403C77.9571 44.615 76.9732 45.5961 75.7964 46.2948C74.6197 46.9934 73.2873 47.3876 71.9199 47.4417V47.4417Z" fill="#F7B801"/>
<path d="M111.384 21.7998C113.326 21.7998 115.136 22.3598 116.816 23.4798C118.534 24.5998 119.915 26.1118 120.96 28.0158C122.006 29.9198 122.528 32.0478 122.528 34.3998C122.528 36.7145 122.006 38.8238 120.96 40.7278C119.915 42.6318 118.534 44.1625 116.816 45.3198C115.136 46.4398 113.326 46.9998 111.384 46.9998H101.08L101.64 45.9918V57.5838C101.64 58.5545 101.342 59.3758 100.744 60.0478C100.147 60.6825 99.3629 60.9998 98.3922 60.9998C97.4589 60.9998 96.6935 60.6825 96.0962 60.0478C95.4989 59.3758 95.2002 58.5545 95.2002 57.5838V25.2158C95.2002 24.2451 95.5175 23.4425 96.1522 22.8078C96.8242 22.1358 97.6455 21.7998 98.6162 21.7998H111.384ZM111.384 40.6158C112.094 40.6158 112.784 40.3171 113.456 39.7198C114.128 39.1225 114.688 38.3571 115.136 37.4238C115.584 36.4531 115.808 35.4451 115.808 34.3998C115.808 33.3171 115.584 32.3091 115.136 31.3758C114.688 30.4425 114.128 29.6958 113.456 29.1358C112.784 28.5385 112.094 28.2398 111.384 28.2398H100.968L101.64 27.2318V41.5118L101.024 40.6158H111.384Z" fill="#E5E5E5"/>
<path d="M141.948 61.5598C138.774 61.5598 136.012 60.9065 133.66 59.5998C131.345 58.2558 129.553 56.4451 128.284 54.1678C127.052 51.8905 126.436 49.3145 126.436 46.4398C126.436 43.0798 127.108 40.2238 128.452 37.8718C129.833 35.4825 131.625 33.6531 133.828 32.3838C136.03 31.1145 138.364 30.4798 140.828 30.4798C142.732 30.4798 144.524 30.8718 146.204 31.6558C147.921 32.4398 149.433 33.5225 150.74 34.9038C152.046 36.2478 153.073 37.8158 153.82 39.6078C154.604 41.3998 154.996 43.3038 154.996 45.3198C154.958 46.2158 154.604 46.9438 153.932 47.5038C153.26 48.0638 152.476 48.3438 151.58 48.3438H130.188L128.508 42.7438H149.06L147.828 43.8638V42.3518C147.753 41.2691 147.361 40.2985 146.652 39.4398C145.98 38.5811 145.121 37.9091 144.076 37.4238C143.068 36.9011 141.985 36.6398 140.828 36.6398C139.708 36.6398 138.662 36.7891 137.692 37.0878C136.721 37.3865 135.881 37.8905 135.172 38.5998C134.462 39.3091 133.902 40.2611 133.492 41.4558C133.081 42.6505 132.876 44.1625 132.876 45.9918C132.876 48.0078 133.286 49.7251 134.108 51.1438C134.966 52.5251 136.049 53.5891 137.356 54.3358C138.7 55.0451 140.118 55.3998 141.612 55.3998C142.993 55.3998 144.094 55.2878 144.916 55.0638C145.737 54.8398 146.39 54.5785 146.876 54.2798C147.398 53.9438 147.865 53.6638 148.276 53.4398C148.948 53.1038 149.582 52.9358 150.18 52.9358C151.001 52.9358 151.673 53.2158 152.196 53.7758C152.756 54.3358 153.036 54.9891 153.036 55.7358C153.036 56.7438 152.513 57.6585 151.468 58.4798C150.497 59.3011 149.134 60.0291 147.38 60.6638C145.625 61.2611 143.814 61.5598 141.948 61.5598Z" fill="#E5E5E5"/>
<path d="M161.203 31.5998H174.475C175.371 31.5998 176.117 31.8985 176.715 32.4958C177.312 33.0931 177.611 33.8398 177.611 34.7358C177.611 35.5945 177.312 36.3225 176.715 36.9198C176.117 37.4798 175.371 37.7598 174.475 37.7598H161.203C160.307 37.7598 159.56 37.4611 158.963 36.8638C158.365 36.2665 158.067 35.5198 158.067 34.6238C158.067 33.7651 158.365 33.0558 158.963 32.4958C159.56 31.8985 160.307 31.5998 161.203 31.5998ZM167.195 24.5998C168.165 24.5998 168.949 24.9358 169.547 25.6078C170.181 26.2425 170.499 27.0451 170.499 28.0158V52.9358C170.499 53.4585 170.592 53.8878 170.779 54.2238C171.003 54.5598 171.283 54.8025 171.619 54.9518C171.992 55.1011 172.384 55.1758 172.795 55.1758C173.243 55.1758 173.653 55.1011 174.027 54.9518C174.4 54.7651 174.829 54.6718 175.315 54.6718C175.837 54.6718 176.304 54.9145 176.715 55.3998C177.163 55.8851 177.387 56.5571 177.387 57.4158C177.387 58.4611 176.808 59.3198 175.651 59.9918C174.531 60.6638 173.317 60.9998 172.011 60.9998C171.227 60.9998 170.349 60.9438 169.379 60.8318C168.445 60.6825 167.549 60.3651 166.691 59.8798C165.869 59.3571 165.179 58.5731 164.619 57.5278C164.059 56.4825 163.779 55.0451 163.779 53.2158V28.0158C163.779 27.0451 164.096 26.2425 164.731 25.6078C165.403 24.9358 166.224 24.5998 167.195 24.5998Z" fill="#E5E5E5"/>
<path d="M214.077 21.7998C214.711 21.7998 215.215 22.0051 215.589 22.4158C215.962 22.7891 216.149 23.2745 216.149 23.8718V58.6478C216.149 59.3571 215.925 59.9358 215.477 60.3838C215.029 60.7945 214.487 60.9998 213.853 60.9998C213.517 60.9998 213.181 60.9438 212.845 60.8318C212.509 60.6825 212.247 60.4958 212.061 60.2718L188.093 28.5758L189.213 27.9038V58.9278C189.213 59.5251 189.007 60.0291 188.597 60.4398C188.223 60.8131 187.719 60.9998 187.085 60.9998C186.487 60.9998 186.002 60.8131 185.629 60.4398C185.255 60.0291 185.069 59.5251 185.069 58.9278V24.0398C185.069 23.3678 185.274 22.8265 185.685 22.4158C186.133 22.0051 186.655 21.7998 187.253 21.7998C187.589 21.7998 187.925 21.8745 188.261 22.0238C188.634 22.1358 188.914 22.3225 189.101 22.5838L212.733 53.8318L212.005 54.7278V23.8718C212.005 23.2745 212.191 22.7891 212.565 22.4158C212.975 22.0051 213.479 21.7998 214.077 21.7998Z" fill="#E5E5E5"/>
<path d="M252.687 46.4398C252.687 49.3518 252.034 51.9465 250.727 54.2238C249.458 56.5011 247.722 58.2931 245.519 59.5998C243.354 60.9065 240.908 61.5598 238.183 61.5598C235.458 61.5598 232.994 60.9065 230.791 59.5998C228.588 58.2931 226.834 56.5011 225.527 54.2238C224.258 51.9465 223.623 49.3518 223.623 46.4398C223.623 43.5278 224.258 40.9331 225.527 38.6558C226.834 36.3785 228.588 34.5865 230.791 33.2798C232.994 31.9731 235.458 31.3198 238.183 31.3198C240.908 31.3198 243.354 31.9731 245.519 33.2798C247.722 34.5865 249.458 36.3785 250.727 38.6558C252.034 40.9331 252.687 43.5278 252.687 46.4398ZM248.207 46.4398C248.207 44.2745 247.759 42.3705 246.863 40.7278C246.004 39.0851 244.81 37.7971 243.279 36.8638C241.786 35.9305 240.087 35.4638 238.183 35.4638C236.279 35.4638 234.562 35.9305 233.031 36.8638C231.538 37.7971 230.343 39.0851 229.447 40.7278C228.551 42.3705 228.103 44.2745 228.103 46.4398C228.103 48.5678 228.551 50.4531 229.447 52.0958C230.343 53.7385 231.538 55.0451 233.031 56.0158C234.562 56.9491 236.279 57.4158 238.183 57.4158C240.087 57.4158 241.786 56.9491 243.279 56.0158C244.81 55.0451 246.004 53.7385 246.863 52.0958C247.759 50.4531 248.207 48.5678 248.207 46.4398Z" fill="#E5E5E5"/>
<path d="M293.585 31.5438C294.183 31.5438 294.687 31.7491 295.097 32.1598C295.545 32.5705 295.769 33.1118 295.769 33.7838C295.769 33.9331 295.751 34.1011 295.713 34.2878C295.713 34.4371 295.676 34.5865 295.601 34.7358L286.977 59.5438C286.791 60.0291 286.473 60.4025 286.025 60.6638C285.615 60.9251 285.167 61.0371 284.681 60.9998C283.823 60.9625 283.169 60.4771 282.721 59.5438L275.665 41.8478L276.785 42.0158L270.401 59.5438C269.991 60.4771 269.337 60.9625 268.441 60.9998C267.956 61.0371 267.489 60.9251 267.041 60.6638C266.593 60.4025 266.295 60.0291 266.145 59.5438L257.353 34.7358C257.241 34.3998 257.185 34.0825 257.185 33.7838C257.185 33.1865 257.391 32.6638 257.801 32.2158C258.212 31.7678 258.772 31.5438 259.481 31.5438C259.929 31.5438 260.34 31.6558 260.713 31.8798C261.087 32.1038 261.348 32.4585 261.497 32.9438L269.057 55.0078L267.881 54.9518L274.433 38.1518C274.807 37.2185 275.497 36.7518 276.505 36.7518C277.028 36.7518 277.439 36.8825 277.737 37.1438C278.073 37.3678 278.316 37.7038 278.465 38.1518L285.297 54.9518L283.897 55.0638L291.457 32.9438C291.793 32.0105 292.503 31.5438 293.585 31.5438Z" fill="#E5E5E5"/>
</svg>
