<svg width="95" height="100" viewBox="0 0 95 100" fill="none" xmlns="http://www.w3.org/2000/svg">
<path d="M1.625 71.6701C2.02304 70.324 2.2593 68.9296 2.32812 67.5201C3.03125 62.5201 3.65 57.5201 4.33437 52.5801C4.47913 51.6781 4.91586 50.8589 5.56852 50.2651C6.22119 49.6712 7.04844 49.3404 7.90625 49.3301C9.04062 49.3301 10.1656 49.3301 11.3 49.3301H44.6094H50.4969H78.4437H81.8562C82.7051 49.5966 83.4475 50.1548 83.968 50.9181C84.4885 51.6813 84.758 52.6066 84.7344 53.5501C84.7694 54.0817 84.8415 54.6098 84.95 55.1301C85.3531 58.0601 85.7469 61.0001 86.1406 63.9301C86.4781 66.3901 86.7594 68.8601 87.1625 71.3101C87.4719 73.2301 87.4062 74.9401 85.85 76.3101C85.4844 76.6301 84.9125 76.6201 84.725 77.1401H82.7562C57.275 77.1401 31.7969 77.1401 6.32188 77.1401C4.03437 77.1401 2.39375 76.3201 1.63437 73.9201L1.625 71.6701ZM47.4406 66.5401H58.9156C60.2 66.5401 60.6969 66.0101 60.7156 64.6401C60.7156 63.6401 60.7156 62.6401 60.7156 61.6401C60.7393 61.3913 60.7106 61.1401 60.6316 60.9047C60.5527 60.6693 60.4255 60.4557 60.2593 60.2794C60.0932 60.1031 59.8922 59.9686 59.6711 59.8857C59.45 59.8027 59.2143 59.7735 58.9812 59.8001C51.3187 59.8001 43.6531 59.8001 35.9844 59.8001C35.7445 59.7722 35.5018 59.8027 35.2746 59.8895C35.0474 59.9762 34.8416 60.1168 34.6728 60.3008C34.504 60.4847 34.3765 60.7071 34.3 60.9512C34.2235 61.1954 34.2 61.4548 34.2312 61.7101C34.2312 62.6001 34.2312 63.4901 34.2312 64.3801C34.2312 66.0201 34.6812 66.5001 36.1812 66.5001L47.4406 66.5401Z" fill="#F8C01B"/>
<path d="M39.2373 49.3096H11.2998C11.2998 48.0296 11.2998 46.7596 11.2998 45.4896C11.2998 43.6796 11.9186 43.0196 13.5967 43.0296H26.2717C26.5363 43.0856 26.8109 43.0432 27.0498 42.9096L27.2373 42.8496L38.1873 42.8996C38.6024 43.2516 38.9226 43.7147 39.1153 44.2417C39.308 44.7687 39.3662 45.3408 39.2842 45.8996C39.1248 46.9996 39.2373 48.1696 39.2373 49.3096Z" fill="#7A7A7A"/>
<path d="M78.444 49.3091H50.4971C50.4971 47.9191 50.4971 46.5191 50.4971 45.1191C50.4971 43.7191 51.1346 42.9991 52.4846 42.9991H75.2564C75.9689 42.9991 76.6721 42.9191 77.3846 42.8691C77.4408 43.0091 77.4502 43.1991 77.5533 43.2891C77.9073 43.601 78.1797 44.0053 78.3439 44.4626C78.5082 44.9199 78.5588 45.4148 78.4908 45.8991C78.4158 46.9991 78.444 48.1791 78.444 49.3091Z" fill="#7A7A7A"/>
<path d="M84.7252 77.1498C84.9314 76.6298 85.4846 76.6398 85.8502 76.3198C87.4064 74.9698 87.4721 73.2598 87.1627 71.3198C86.7596 68.8698 86.4783 66.3998 86.1408 63.9398C85.7471 61.0098 85.3533 58.0698 84.9502 55.1398C84.8417 54.6195 84.7696 54.0914 84.7346 53.5598C84.7582 52.6163 84.4887 51.691 83.9682 50.9278C83.4477 50.1645 82.7053 49.6063 81.8564 49.3398L83.6564 49.2598C84.7908 49.2598 85.9252 49.2598 87.0502 49.2598C87.9079 49.2628 88.7365 49.5916 89.3876 50.1872C90.0387 50.7827 90.4697 51.6061 90.6033 52.5098C91.2877 57.5098 91.9252 62.4198 92.5908 67.3798C92.7971 68.9098 93.0033 70.4498 93.2471 71.9798C93.3966 72.6079 93.4054 73.2648 93.2728 73.8972C93.1402 74.5297 92.87 75.12 92.4839 75.6204C92.0978 76.1208 91.6068 76.5173 91.0504 76.7777C90.4941 77.0382 89.8881 77.1554 89.2814 77.1198C87.7627 77.1898 86.2439 77.1598 84.7252 77.1498Z" fill="#F7B801"/>
<path d="M27.2377 42.8497L27.0502 42.9097C26.6939 42.9097 26.3377 42.8497 25.9814 42.8497H13.6533C13.6609 41.374 14.16 39.9493 15.0617 38.83C15.9633 37.7107 17.2086 36.9698 18.5752 36.7397C18.8718 36.7378 19.1567 36.616 19.3725 36.3989C19.5882 36.1818 19.7187 35.8855 19.7377 35.5697C19.879 34.8524 20.1756 34.1802 20.6038 33.6069C21.0321 33.0337 21.5801 32.5752 22.2041 32.2682C22.8281 31.9611 23.5108 31.814 24.1976 31.8386C24.8844 31.8632 25.5563 32.0587 26.1596 32.4097C26.3421 32.527 26.5512 32.589 26.7643 32.589C26.9774 32.589 27.1864 32.527 27.3689 32.4097C27.9612 32.0837 28.6463 32.0055 29.2898 32.1905C29.9332 32.3755 30.4887 32.8104 30.8471 33.4097C31.0283 33.8068 31.3035 34.1466 31.6455 34.3957C31.9874 34.6447 32.3843 34.7943 32.7971 34.8297C32.5439 35.3197 32.2908 35.8297 32.0189 36.2997C30.5835 38.6094 28.9851 40.7991 27.2377 42.8497Z" fill="#9D7D95"/>
<path d="M27.2373 42.8496C28.9839 40.8054 30.5823 38.6224 32.0186 36.3196C32.2904 35.8396 32.5436 35.3196 32.7967 34.8496C33.7094 35.0478 34.5153 35.6137 35.0467 36.4296C35.1459 36.5969 35.285 36.7332 35.4496 36.8246C35.6143 36.9159 35.7988 36.9591 35.9842 36.9496C37.5321 36.8802 39.0445 37.4562 40.2012 38.5556C41.3578 39.655 42.0679 41.1915 42.1811 42.8396L38.1873 42.8996L27.2373 42.8496Z" fill="#9D7D95"/>
<path d="M62.2996 32.7507C61.9502 31.198 62.154 29.5621 62.8715 28.1607C63.5737 26.6655 64.4459 25.2683 65.4684 24.0007C65.6422 23.7188 65.88 23.4884 66.1597 23.3309C66.4395 23.1734 66.752 23.0939 67.0682 23.0999C67.3845 23.1059 67.6942 23.1971 67.9685 23.3651C68.2428 23.5331 68.4728 23.7724 68.6371 24.0607C69.3664 24.9948 70.013 25.9991 70.5684 27.0607C70.3246 27.2407 70.3059 27.5607 70.2496 27.8207C69.4715 31.4207 66.4996 33.3607 62.9277 32.7107C62.684 32.5907 62.4684 32.4907 62.2996 32.7507Z" fill="#38DFC2"/>
<path d="M62.2998 32.7502C62.4686 32.4902 62.6842 32.5902 62.9279 32.6402C66.4811 33.2902 69.4904 31.3502 70.2498 27.7502C70.306 27.4902 70.3248 27.1702 70.5686 26.9902C71.8529 29.1702 72.6592 31.4102 71.3467 33.9202C70.8458 34.885 70.0724 35.6567 69.1365 36.1253C68.2006 36.5939 67.15 36.7356 66.1342 36.5302C65.2239 36.3551 64.3795 35.9063 63.7002 35.2367C63.021 34.567 62.5351 33.7044 62.2998 32.7502Z" fill="#06D7B3"/>
<path d="M38.1875 42.8998L42.2094 42.8398C43.8875 42.9598 44.5906 43.7498 44.6094 45.5298C44.6094 46.7898 44.6094 48.0498 44.6094 49.3098H39.2375C39.2375 48.1698 39.1625 47.0198 39.2375 45.8898C39.3232 45.337 39.2714 44.7699 39.0871 44.2452C38.9028 43.7205 38.5926 43.2565 38.1875 42.8998Z" fill="#BDBDBD"/>
<path d="M83.6566 49.2806L81.8566 49.3606H78.4441C78.4441 48.2306 78.4441 47.0906 78.4441 45.9606C78.5121 45.4763 78.4615 44.9814 78.2972 44.5241C78.133 44.0668 77.8606 43.6625 77.5066 43.3506C77.4035 43.2606 77.3941 43.0706 77.3379 42.9306C78.9008 42.8201 80.47 42.8636 82.0254 43.0606C82.4739 43.1185 82.8841 43.3587 83.1706 43.7314C83.457 44.104 83.5976 44.5802 83.5629 45.0606C83.6566 46.4306 83.6473 47.8606 83.6566 49.2806Z" fill="#AD93A7"/>
<path d="M13.6533 42.8301H25.9814C26.3377 42.8301 26.6939 42.8301 27.0502 42.8901C26.8113 43.0237 26.5367 43.066 26.2721 43.0101H13.6064C13.626 42.9513 13.6417 42.8912 13.6533 42.8301Z" fill="#BDBDBD"/>
<path d="M47.4595 66.5401H36.2095C34.7095 66.5401 34.2689 66.0601 34.2595 64.4201C34.2595 63.5301 34.2595 62.6401 34.2595 61.7501C34.2283 61.4949 34.2518 61.2354 34.3283 60.9913C34.4047 60.7471 34.5322 60.5247 34.701 60.3408C34.8698 60.1569 35.0756 60.0162 35.3028 59.9295C35.53 59.8428 35.7727 59.8122 36.0126 59.8401C43.6814 59.8401 51.347 59.8401 59.0095 59.8401C59.2381 59.8229 59.4674 59.8592 59.6815 59.9463C59.8956 60.0334 60.0893 60.1693 60.2491 60.3445C60.4089 60.5197 60.5309 60.7299 60.6066 60.9606C60.6824 61.1913 60.71 61.4368 60.6876 61.6801C60.6876 62.6801 60.6876 63.6801 60.6876 64.6801C60.6876 66.0501 60.172 66.5801 58.8876 66.5801L47.4595 66.5401Z" fill="#5B274E"/>
</svg>
