<svg width="90" height="90" viewBox="0 0 90 90" fill="none" xmlns="http://www.w3.org/2000/svg">
<g clip-path="url(#clip0_300_31056)">
<path d="M89.9998 26.379V63.63H45.0898C45.0898 58.32 45.0898 53.01 45.0898 47.7V47.61C45.8559 47.6911 46.6298 47.6547 47.3848 47.502C47.6638 47.718 47.9968 47.628 48.2848 47.637H70.0558C70.4674 47.6622 70.8793 47.5944 71.261 47.4386C71.6428 47.2827 71.9845 47.0429 72.2608 46.737C72.6164 46.3807 72.8544 45.9241 72.9429 45.4286C73.0314 44.933 72.9661 44.4223 72.7558 43.965C72.5647 43.4692 72.2234 43.0456 71.7796 42.7535C71.3358 42.4614 70.8118 42.3154 70.2808 42.336C66.8878 42.336 63.5038 42.336 60.1108 42.336C60.4708 41.994 60.8128 41.634 61.1818 41.301C64.6411 38.1132 67.0803 33.9736 68.1928 29.403C68.753 26.7144 68.9468 23.9625 68.7688 21.222C73.7728 21.222 78.7858 21.222 83.7898 21.222C84.7557 21.2022 85.7121 21.4151 86.5784 21.8428C87.4446 22.2704 88.1952 22.9002 88.7668 23.679C89.3176 24.5083 89.7338 25.4196 89.9998 26.379Z" fill="#5B274E"/>
<path d="M45.09 90.0004H5.48995C5.30095 89.9374 5.11195 89.8654 4.91395 89.8204C3.62194 89.5187 2.46524 88.7999 1.6226 87.7751C0.779952 86.7502 0.298261 85.4764 0.251953 84.1504C0.251953 77.3194 0.251953 70.4794 0.251953 63.6484H26.01H45.099L45.09 90.0004Z" fill="#5B274E"/>
<path d="M45.0898 90.0009V63.6309H89.9998V85.0689C89.7298 85.2579 89.7478 85.5729 89.6488 85.8339C89.4016 86.579 89.0096 87.2679 88.4952 87.861C87.9809 88.454 87.3544 88.9397 86.6518 89.2899C86.1028 89.5689 85.4908 89.7579 84.9148 89.9919L45.0898 90.0009Z" fill="#5B274E"/>
<path d="M42.453 0H45.09C45.09 3.09 45.09 6.183 45.09 9.279C43.965 9.378 42.885 9.819 42.678 10.953C42.6001 11.4287 42.3963 11.875 42.0877 12.2453C41.7791 12.6156 41.3769 12.8966 40.923 13.059C40.7755 13.1509 40.6369 13.2563 40.509 13.374C37.422 15.75 36.801 21.474 40.806 23.859C42.1421 24.6984 43.5784 25.3666 45.081 25.848C45.0758 25.8898 45.0758 25.9322 45.081 25.974C45.081 27.495 45.081 29.016 45.081 30.528C43.7884 30.6267 42.4981 30.3081 41.4 29.619C40.8294 29.2494 40.1355 29.1214 39.4705 29.2631C38.8056 29.4049 38.2242 29.8048 37.854 30.375C37.4912 30.8951 37.337 31.5326 37.422 32.161C37.507 32.7894 37.825 33.363 38.313 33.768C39.2842 34.615 40.4498 35.2087 41.706 35.496C42.102 35.604 42.354 35.721 42.462 36.198C42.5552 36.8124 42.8745 37.3699 43.3573 37.7611C43.8401 38.1524 44.4516 38.3492 45.072 38.313C45.072 41.409 45.072 44.505 45.072 47.592V47.7L42.597 47.646C42.525 47.592 42.462 47.52 42.39 47.511C37.8997 46.9834 33.6486 45.2025 30.123 42.372C26.0957 39.0384 23.2414 34.5031 21.978 29.43C21.4356 26.733 21.242 23.9774 21.402 21.231C21.4687 21.0092 21.5228 20.7839 21.564 20.556C22.2222 15.7971 24.305 11.3486 27.5385 7.79547C30.7721 4.24228 35.005 1.75063 39.681 0.648C40.6255 0.531778 41.5548 0.314534 42.453 0V0Z" fill="#FEE980"/>
<path d="M45.0898 47.61C45.0898 44.523 45.0898 41.427 45.0898 38.331C45.6091 38.3514 46.1205 38.199 46.5439 37.8978C46.9674 37.5965 47.2789 37.1633 47.4298 36.666C47.5208 36.1768 47.7393 35.7202 48.0632 35.3425C48.3872 34.9648 48.8052 34.6794 49.2748 34.515C49.5345 34.3823 49.7715 34.2091 49.9768 34.002C53.9458 30.6 53.8648 24.021 48.5098 21.6C47.4028 21.096 46.2328 20.7 45.0898 20.259V20.187C45.0898 19.197 45.0898 18.216 45.0898 17.235C45.5083 17.2024 45.929 17.2532 46.3276 17.3845C46.7262 17.5158 47.0948 17.725 47.4118 18C47.6823 18.2251 47.9957 18.3928 48.3331 18.4929C48.6704 18.593 49.0246 18.6233 49.3741 18.582C49.7236 18.5408 50.061 18.4288 50.3657 18.2529C50.6705 18.077 50.9363 17.8409 51.1468 17.559C51.5474 17.025 51.736 16.3616 51.6761 15.6968C51.6163 15.032 51.3123 14.4129 50.8228 13.959C50.1941 13.329 49.4354 12.8437 48.5998 12.537C48.3236 12.4696 48.0757 12.3168 47.8915 12.1002C47.7072 11.8837 47.5961 11.6145 47.5738 11.331C47.4575 10.7713 47.1509 10.2692 46.7063 9.90995C46.2617 9.55066 45.7065 9.35634 45.1348 9.36V9.297V0H47.4118C47.5198 0.18 47.7088 0.144 47.8798 0.171C57.0238 1.485 63.4138 6.471 67.1398 14.868C67.9421 16.8954 68.5039 19.0098 68.8138 21.168C68.9918 23.9085 68.798 26.6605 68.2378 29.349C67.1277 33.9423 64.6781 38.1022 61.1998 41.301C60.8308 41.634 60.4888 41.994 60.1288 42.336C59.8948 42.498 59.6428 42.651 59.4178 42.822C55.9338 45.4829 51.7688 47.1052 47.4028 47.502C46.642 47.6566 45.8618 47.693 45.0898 47.61Z" fill="#F2D232"/>
<path d="M0.216039 63.6381C0.216039 62.3511 0.216039 61.0641 0.216039 59.7771C0.216039 49.0851 0.261039 38.4021 0.216039 27.7101C0.189037 26.8563 0.335943 26.006 0.647825 25.2107C0.959708 24.4155 1.43005 23.692 2.03027 23.0842C2.63048 22.4764 3.34803 21.997 4.13929 21.6752C4.93055 21.3534 5.77899 21.1958 6.63304 21.2121C11.574 21.3471 16.533 21.2121 21.447 21.2121C21.287 23.9585 21.4806 26.714 22.023 29.4111C23.2941 34.4755 26.1512 39.0009 30.177 42.3261C26.766 42.3261 23.355 42.3261 19.935 42.3261C19.587 42.3172 19.2406 42.377 18.9156 42.502C18.5906 42.627 18.2935 42.8148 18.0411 43.0547C17.7887 43.2945 17.586 43.5817 17.4446 43.8999C17.3032 44.2181 17.2259 44.561 17.217 44.9091C17.2082 45.2572 17.268 45.6036 17.393 45.9285C17.518 46.2535 17.7058 46.5507 17.9456 46.803C18.43 47.3128 19.0971 47.6092 19.8 47.6271C27.387 47.6271 34.983 47.6271 42.57 47.6271L45.045 47.6811C45.045 52.9911 45.045 58.3011 45.045 63.6111H25.956L0.216039 63.6381Z" fill="#5B274E"/>
<path d="M47.3848 47.5019C51.7507 47.1051 55.9157 45.4828 59.3998 42.8219C59.6248 42.6509 59.8768 42.4979 60.1108 42.3359C63.5038 42.3359 66.8878 42.3359 70.2808 42.3359C70.8117 42.3154 71.3357 42.4614 71.7795 42.7535C72.2233 43.0456 72.5647 43.4691 72.7558 43.9649C72.9804 44.4298 73.0535 44.9535 72.9647 45.4621C72.8759 45.9707 72.6297 46.4386 72.2608 46.7999C71.9844 47.1059 71.6427 47.3457 71.2609 47.5015C70.8792 47.6573 70.4673 47.7251 70.0558 47.6999H48.3118C47.9968 47.6279 47.6998 47.6999 47.3848 47.5019Z" fill="#06D7B3"/>
<path d="M42.6055 47.6194C35.0185 47.6194 27.4225 47.6194 19.8355 47.6194C19.4904 47.6159 19.1494 47.5444 18.8319 47.409C18.5144 47.2737 18.2267 47.0771 17.9851 46.8306C17.7436 46.5841 17.553 46.2924 17.4242 45.9722C17.2954 45.652 17.231 45.3095 17.2345 44.9644C17.2381 44.6193 17.3095 44.2783 17.4449 43.9608C17.5802 43.6433 17.7768 43.3556 18.0233 43.1141C18.2699 42.8725 18.5616 42.6819 18.8818 42.5531C19.202 42.4243 19.5444 42.3599 19.8895 42.3634C23.3095 42.3634 26.7205 42.3634 30.1315 42.3634C33.6571 45.1939 37.9082 46.9748 42.3985 47.5024C42.4705 47.4934 42.5335 47.5654 42.6055 47.6194Z" fill="#06D7B3"/>
<path d="M45.0901 20.2598C46.2331 20.7098 47.4031 21.0968 48.5101 21.6008C53.9101 24.0218 53.9101 30.6008 49.9681 34.0028C49.7627 34.2099 49.5257 34.383 49.2661 34.5158C48.7964 34.6801 48.3784 34.9656 48.0544 35.3433C47.7305 35.721 47.512 36.1775 47.4211 36.6668C47.2701 37.164 46.9586 37.5972 46.5351 37.8985C46.1117 38.1998 45.6003 38.3522 45.0811 38.3318V30.6008C45.7097 30.5422 46.2979 30.2653 46.7435 29.8181C47.1891 29.3708 47.4638 28.7816 47.5201 28.1528C47.5201 27.1808 46.8721 26.5328 45.3691 26.0918C45.2859 26.0724 45.2018 26.0574 45.1171 26.0468C45.1119 26.0049 45.1119 25.9626 45.1171 25.9208C45.0991 24.0248 45.0901 22.1378 45.0901 20.2598Z" fill="#4D4D4D"/>
<path d="M45.0902 20.2589C45.0902 22.1309 45.0902 23.9999 45.0902 25.8659C43.5876 25.3844 42.1514 24.7162 40.8152 23.8769C36.8102 21.4739 37.4312 15.7769 40.5182 13.3919C40.6461 13.2742 40.7847 13.1688 40.9322 13.0769C41.3861 12.9145 41.7883 12.6335 42.0969 12.2632C42.4055 11.8928 42.6094 11.4466 42.6872 10.9709C42.8942 9.83687 43.9742 9.39587 45.0992 9.29688V9.35987C45.0992 11.9339 45.0992 14.5169 45.0992 17.0999C44.8742 17.1449 44.6492 17.1809 44.4242 17.2439C44.0983 17.3093 43.8026 17.479 43.5817 17.7275C43.3609 17.9759 43.227 18.2895 43.2002 18.6209C43.1012 19.2329 43.6232 19.4579 44.0372 19.7009C44.4512 19.9439 44.7122 20.0249 45.0542 20.1869L45.0902 20.2589Z" fill="#4D4D4D"/>
<path d="M45.0723 30.6009V38.3319C44.4519 38.3681 43.8403 38.1713 43.3575 37.78C42.8747 37.3888 42.5554 36.8313 42.4623 36.2169C42.3543 35.7399 42.1023 35.6229 41.7063 35.5149C40.45 35.2275 39.2844 34.6339 38.3133 33.7869C37.8253 33.3819 37.5073 32.8083 37.4222 32.1799C37.3372 31.5514 37.4914 30.914 37.8543 30.3939C38.0361 30.1101 38.2722 29.8649 38.5489 29.6724C38.8256 29.4799 39.1375 29.3438 39.4668 29.2719C39.7962 29.2 40.1364 29.1937 40.4682 29.2535C40.7999 29.3132 41.1167 29.4377 41.4003 29.6199C42.4873 30.3324 43.7747 30.6763 45.0723 30.6009Z" fill="#4D4D4D"/>
<path d="M45.1083 25.9922C45.193 26.0028 45.2771 26.0178 45.3603 26.0372C46.8633 26.4782 47.5383 27.1262 47.5113 28.0982C47.4551 28.727 47.1803 29.3163 46.7347 29.7635C46.2891 30.2107 45.7009 30.4877 45.0723 30.5462C45.0813 29.0342 45.0903 27.5132 45.1083 25.9922Z" fill="#FCD543"/>
<path d="M45.0537 17.0994C45.0537 14.5164 45.0537 11.9334 45.0537 9.35943C45.6253 9.35577 46.1806 9.55008 46.6252 9.90937C47.0698 10.2687 47.3763 10.7708 47.4927 11.3304C47.5196 11.625 47.6426 11.9025 47.8426 12.1204C48.0426 12.3382 48.3086 12.4844 48.5997 12.5364C49.4539 12.8452 50.2286 13.3401 50.8677 13.9854C51.3572 14.4393 51.6611 15.0584 51.721 15.7232C51.7808 16.388 51.5923 17.0515 51.1917 17.5854C50.9811 17.8674 50.7154 18.1034 50.4106 18.2793C50.1058 18.4552 49.7684 18.5672 49.419 18.6085C49.0695 18.6497 48.7153 18.6194 48.378 18.5193C48.0406 18.4193 47.7271 18.2516 47.4567 18.0264C47.1396 17.7515 46.7711 17.5422 46.3725 17.4109C45.9739 17.2796 45.5531 17.2288 45.1347 17.2614C45.1016 17.2107 45.0744 17.1563 45.0537 17.0994Z" fill="#4D4D4D"/>
<path d="M45.0541 17.0996C45.0502 17.1445 45.0502 17.1897 45.0541 17.2346C45.0541 18.2156 45.0541 19.1966 45.0541 20.1866C44.7121 20.0246 44.3611 19.8896 44.0371 19.7006C43.7131 19.5116 43.1371 19.2326 43.2001 18.6206C43.2225 18.299 43.346 17.9927 43.5529 17.7454C43.7598 17.4981 44.0395 17.3225 44.3521 17.2436C44.6041 17.1806 44.8291 17.1446 45.0541 17.0996Z" fill="#FEF27D"/>
</g>
<defs>
<clipPath id="clip0_300_31056">
<rect width="90" height="90" fill="white"/>
</clipPath>
</defs>
</svg>
