<svg width="90" height="90" viewBox="0 0 90 90" fill="none" xmlns="http://www.w3.org/2000/svg">
<path d="M74.4753 0.900391C74.6392 1.20068 74.8665 1.46172 75.1413 1.66539C78.1413 4.66539 81.1413 7.66539 84.1413 10.6654C83.4236 11.5122 82.6248 12.2869 81.7563 12.9784C81.0641 13.5839 80.183 13.9302 79.2638 13.9581C78.3445 13.986 77.4441 13.6938 76.7163 13.1314C75.967 12.5139 75.2548 11.8528 74.5834 11.1514C74.3584 10.9444 74.1783 10.6564 73.8183 10.6474C73.6473 9.84639 72.9184 9.52239 72.4234 8.99139C71.9924 8.57331 71.6507 8.07229 71.4186 7.51854C71.1866 6.96478 71.0692 6.36977 71.0734 5.76939C71.0792 4.78828 71.4628 3.84714 72.1444 3.14139L74.3043 0.900391H74.4753Z" fill="#F7B801"/>
<path d="M21.3662 47.3129C21.3662 46.8809 21.7442 46.6919 21.9962 46.4129L47.8982 20.5289C48.1502 20.2679 48.5102 20.0699 48.5282 19.6289C48.622 19.6928 48.7121 19.762 48.7982 19.8359C54.1982 25.2359 59.5772 30.6149 64.9352 35.9729C65.3762 36.4139 65.6552 37.0169 66.2312 37.3229L66.4292 37.6739C66.2762 37.8449 66.1322 38.0159 65.9702 38.1779C57.1802 46.9919 48.3902 55.7969 39.6002 64.5929C39.4382 64.7549 39.2582 64.8989 39.0872 65.0519L37.8632 63.9899C37.6562 63.7559 37.4582 63.5129 37.2332 63.2879L21.9782 47.9879C21.7631 47.7732 21.5588 47.548 21.3662 47.3129V47.3129ZM44.5502 32.0129C44.0822 31.8059 43.7582 32.1929 43.4072 32.5439L31.4462 44.5049C29.6462 46.3049 29.6462 48.2309 31.4462 50.0489C33.8822 52.4909 36.3002 54.9179 38.7002 57.3299C40.5002 59.1299 42.4442 59.1299 44.2532 57.3299L55.5752 46.0529C55.9802 45.6569 56.5832 45.2789 56.6912 44.8019C56.7992 44.3249 56.0882 43.9739 55.7912 43.5509C54.3946 41.614 53.271 39.4941 52.4522 37.2509C50.9402 33.8399 48.2672 32.2649 44.5502 32.0039V32.0129Z" fill="#E9E9E9"/>
<path d="M66.2308 37.3412C65.6548 37.0352 65.3308 36.4412 64.9348 35.9912C59.5348 30.5912 54.1558 25.2122 48.7978 19.8542C48.7117 19.7803 48.6216 19.7112 48.5278 19.6472C46.3768 16.9472 48.1768 14.3912 50.3278 13.0772C51.1288 12.5822 51.9658 13.0232 52.6228 13.6892C55.2088 16.2812 57.7948 18.8672 60.3808 21.4472C60.7862 21.9275 61.2486 22.3567 61.7578 22.7252C63.1179 24.2458 64.56 25.691 66.0778 27.0542C67.8778 29.0252 69.7948 30.7982 71.6308 32.6972L72.0898 33.2012C72.1268 33.6827 72.0995 34.1669 72.0088 34.6412C71.5138 36.1892 68.9128 37.6112 67.2658 37.3412C66.9328 37.3322 66.5998 36.9722 66.2308 37.3412Z" fill="#F7B801"/>
<path d="M66.069 27.0542C64.5513 25.6909 63.1091 24.2458 61.749 22.7252L73.8 10.7012C74.16 10.7012 74.34 10.9982 74.565 11.2052C75.2365 11.9065 75.9487 12.5677 76.698 13.1852C77.4257 13.7476 78.3262 14.0398 79.2454 14.0119C80.1647 13.9839 81.0458 13.6377 81.738 13.0322C82.6064 12.3407 83.4052 11.566 84.123 10.7192C85.284 11.8532 86.445 12.9962 87.615 14.1212C87.885 14.3822 87.894 14.5712 87.615 14.8232C86.922 15.4622 86.292 16.1732 85.563 16.7672C84.7758 17.4702 83.7461 17.8398 82.6915 17.7978C81.6369 17.7558 80.6399 17.3056 79.911 16.5422C79.5594 16.244 79.2314 15.919 78.93 15.5702C78.471 14.9852 78.156 14.9762 77.598 15.5702C73.998 19.2152 70.398 22.8152 66.798 26.4332C66.537 26.6312 66.303 26.8382 66.069 27.0542Z" fill="#F9C634"/>
<path d="M21.3656 47.3125C21.5573 47.5598 21.7615 47.7972 21.9776 48.0235L37.2326 63.3235C37.4576 63.5485 37.6556 63.7915 37.8626 64.0255C37.5781 64.0249 37.2955 64.0705 37.0256 64.1605C35.046 64.7819 32.9803 65.0857 30.9056 65.0605C30.0232 65.0786 29.1466 64.9146 28.3305 64.5785C27.5144 64.2425 26.7764 63.7417 26.1626 63.1075C25.1186 61.9375 23.9666 60.8755 22.8506 59.7685C22.6346 59.5525 22.4636 59.2555 22.1036 59.2375C21.8966 58.5805 21.2486 58.2655 20.9246 57.6805C20.1422 56.1783 19.8286 54.4759 20.0246 52.7935C20.1437 51.1717 20.4457 49.5685 20.9246 48.0145C20.9966 47.6995 20.9606 47.3485 21.3656 47.3125Z" fill="#F7B801"/>
<path d="M39.0596 65.0514C39.2306 64.8984 39.4106 64.7544 39.5726 64.5924C48.3746 55.8024 57.1736 47.0034 65.9696 38.1954C66.1316 38.0334 66.2756 37.8624 66.4286 37.6914C67.4432 38.3493 68.3105 39.2104 68.9756 40.2204C66.7076 42.4794 64.4756 44.7204 62.1716 47.0064C55.4696 53.6964 48.7706 60.3894 42.0746 67.0854C41.8406 67.3194 41.6606 67.6344 41.3006 67.7244C41.2466 67.2834 40.8416 67.1124 40.5986 66.8244C40.1126 66.2034 39.3746 65.8164 39.0596 65.0514Z" fill="#F7B801"/>
<path d="M39.0596 65.0516C39.3746 65.8166 40.1126 66.2036 40.5986 66.8516C40.8416 67.1576 41.2466 67.3286 41.3006 67.7516C38.7479 68.6772 36.0123 68.9856 33.3176 68.6516C32.1702 68.5365 31.1013 68.0164 30.3026 67.1846C29.8256 66.6626 29.5286 66.7346 29.0786 67.1846C28.0796 68.2556 26.9996 69.2996 26.0006 70.2896C24.6236 71.6666 23.6876 71.7656 22.0676 70.7126C21.5632 69.9964 20.9243 69.385 20.1866 68.9126C19.5574 68.0369 18.8229 67.2419 17.9996 66.5456C17.0996 65.0426 17.2346 64.1066 18.4586 62.8736C19.6826 61.6406 20.9156 60.4166 22.1486 59.1836C22.5086 59.1836 22.6796 59.4986 22.8956 59.7146C24.0116 60.8216 25.1636 61.8836 26.2076 63.0536C26.8214 63.6878 27.5594 64.1886 28.3755 64.5246C29.1916 64.8606 30.0682 65.0247 30.9506 65.0066C33.0253 65.0318 35.0909 64.728 37.0706 64.1066C37.3404 64.0166 37.6231 63.971 37.9076 63.9716L39.0596 65.0516Z" fill="#F9C634"/>
<path d="M17.9997 66.5469C18.8411 67.2516 19.5909 68.0589 20.2317 68.9499C19.9797 69.1749 19.7097 69.3909 19.4667 69.6249C14.0667 75.0249 8.66674 80.4249 3.26674 85.8249C3.02374 86.0679 2.76274 86.2839 2.51074 86.5179C1.61074 84.1149 1.86274 82.8639 3.49174 81.2709C8.09974 76.6989 12.7077 72.0459 17.3157 67.4289C17.5767 67.1769 17.9187 66.9699 17.9997 66.5469Z" fill="#E9E9E9"/>
<path d="M2.47461 86.5074C2.72661 86.2734 2.98761 86.0574 3.23061 85.8144C8.63061 80.4144 14.0306 75.0145 19.4306 69.6145C19.6736 69.3805 19.9436 69.1645 20.1956 68.9395C20.9333 69.4119 21.5722 70.0232 22.0766 70.7395C20.7266 72.0985 19.3766 73.4395 18.0266 74.8255C13.5146 79.3254 9.00561 83.8374 4.49961 88.3614C3.97761 88.8924 3.70761 88.8204 3.36561 88.2624C2.97477 87.73 2.67379 87.1372 2.47461 86.5074V86.5074Z" fill="#BDBDBD"/>
<path d="M68.9764 40.2212C68.3114 39.2112 67.4441 38.3501 66.4294 37.6922C66.3574 37.5752 66.2944 37.4582 66.2314 37.3412C66.5824 36.9722 66.9335 37.3412 67.2575 37.3412C68.9045 37.5752 71.5054 36.1532 72.0004 34.6412C72.0912 34.1669 72.1184 33.6826 72.0814 33.2012C73.1704 34.2722 74.2954 35.3342 75.3574 36.4412C75.5301 36.5921 75.6708 36.776 75.7713 36.9821C75.8718 37.1882 75.9301 37.4123 75.9427 37.6412C75.9553 37.8702 75.9219 38.0993 75.8446 38.3152C75.7673 38.5311 75.6475 38.7293 75.4924 38.8982C74.9694 39.6108 74.3195 40.2209 73.5754 40.6982C71.9284 41.6882 70.4164 41.3012 68.9764 40.2212Z" fill="#F9C634"/>
<path d="M44.5505 32.0032C48.2675 32.2642 50.9405 33.8032 52.4165 37.2862C53.2353 39.5294 54.3588 41.6492 55.7555 43.5862C56.0885 44.0092 56.7995 44.3602 56.6555 44.8372C56.5115 45.3142 55.9445 45.6922 55.5395 46.0882L44.2895 57.3472C42.4895 59.1472 40.5635 59.1472 38.7365 57.3472C36.3365 54.9472 33.9095 52.5202 31.4555 50.0662C29.6555 48.2662 29.6555 46.3222 31.4555 44.5222L43.4165 32.5522C43.7585 32.1832 44.1005 31.7962 44.5505 32.0032ZM43.9655 47.8432C44.308 47.892 44.6559 47.8028 44.9326 47.5953C45.2094 47.3877 45.3924 47.0787 45.4415 46.7362C45.4778 46.5666 45.4778 46.3912 45.4413 46.2217C45.4047 46.0522 45.3326 45.8923 45.2296 45.7527C45.1267 45.6132 44.9952 45.4971 44.844 45.4122C44.6928 45.3273 44.5252 45.2755 44.3525 45.2602C44.1293 45.2329 43.9229 45.1276 43.7697 44.9629C43.6166 44.7983 43.5265 44.5848 43.5155 44.3602C43.4952 44.1945 43.4398 44.035 43.3528 43.8925C43.2659 43.75 43.1494 43.6278 43.0113 43.534C42.8732 43.4402 42.7167 43.3771 42.5521 43.3488C42.3876 43.3206 42.2189 43.3279 42.0575 43.3702C41.7389 43.3955 41.4434 43.5461 41.2358 43.7891C41.0282 44.0321 40.9256 44.3476 40.9505 44.6662C40.9397 45.0728 41.0091 45.4775 41.1549 45.8573C41.3006 46.2371 41.5197 46.5844 41.7997 46.8794C42.0797 47.1745 42.4151 47.4114 42.7867 47.5768C43.1583 47.7422 43.5589 47.8327 43.9655 47.8432V47.8432ZM41.2655 41.0212C41.2608 40.8498 41.2224 40.681 41.1525 40.5244C41.0826 40.3679 40.9825 40.2267 40.8579 40.1088C40.7334 39.991 40.5869 39.8988 40.4267 39.8376C40.2665 39.7764 40.0959 39.7474 39.9245 39.7522C39.4218 39.853 38.9632 40.1085 38.613 40.4829C38.2628 40.8573 38.0385 41.3319 37.9715 41.8402C37.9754 42.0123 38.0151 42.1816 38.088 42.3375C38.1609 42.4934 38.2654 42.6325 38.3948 42.7459C38.5243 42.8593 38.6759 42.9445 38.8401 42.9962C39.0043 43.0479 39.1774 43.0649 39.3485 43.0462C39.8395 42.9434 40.2883 42.6953 40.6365 42.3342C40.9848 41.9731 41.2165 41.5156 41.3015 41.0212H41.2655ZM47.7005 47.4922C47.2007 47.5941 46.7451 47.849 46.3968 48.2215C46.0484 48.5941 45.8246 49.0658 45.7565 49.5712C45.7592 49.7428 45.7977 49.912 45.8696 50.0679C45.9415 50.2238 46.0452 50.363 46.1739 50.4765C46.3027 50.59 46.4538 50.6754 46.6175 50.7272C46.7811 50.779 46.9538 50.796 47.1245 50.7772C47.6105 50.6714 48.0533 50.4216 48.3953 50.0603C48.7372 49.6991 48.9624 49.2433 49.0415 48.7522C49.0368 48.5812 48.9984 48.4128 48.9283 48.2567C48.8583 48.1007 48.7581 47.96 48.6334 47.8429C48.5087 47.7258 48.3621 47.6345 48.202 47.5743C48.0419 47.5141 47.8714 47.4862 47.7005 47.4922Z" fill="#06D7B3"/>
</svg>
